<?xml version="1.0" encoding="utf-8"?>
<svg xmlns="http://www.w3.org/2000/svg" xmlns:xlink="http://www.w3.org/1999/xlink" width="600" height="400" viewBox="0 0 2400 1600">
<defs>
  <clipPath id="clip670">
    <rect x="0" y="0" width="2400" height="1600"/>
  </clipPath>
</defs>
<path clip-path="url(#clip670)" d="M0 1600 L2400 1600 L2400 0 L0 0  Z" fill="#ffffff" fill-rule="evenodd" fill-opacity="1"/>
<defs>
  <clipPath id="clip671">
    <rect x="192" y="923" width="2161" height="501"/>
  </clipPath>
</defs>
<path clip-path="url(#clip670)" d="M192.709 623.18 L2352.76 623.18 L2352.76 123.472 L192.709 123.472  Z" fill="#ffffff" fill-rule="evenodd" fill-opacity="1"/>
<defs>
  <clipPath id="clip672">
    <rect x="192" y="123" width="2161" height="501"/>
  </clipPath>
</defs>
<polyline clip-path="url(#clip672)" style="stroke:#000000; stroke-linecap:round; stroke-linejoin:round; stroke-width:2; stroke-opacity:0.1; fill:none" points="253.84,623.18 253.84,123.472 "/>
<polyline clip-path="url(#clip672)" style="stroke:#000000; stroke-linecap:round; stroke-linejoin:round; stroke-width:2; stroke-opacity:0.1; fill:none" points="763.286,623.18 763.286,123.472 "/>
<polyline clip-path="url(#clip672)" style="stroke:#000000; stroke-linecap:round; stroke-linejoin:round; stroke-width:2; stroke-opacity:0.1; fill:none" points="1272.73,623.18 1272.73,123.472 "/>
<polyline clip-path="url(#clip672)" style="stroke:#000000; stroke-linecap:round; stroke-linejoin:round; stroke-width:2; stroke-opacity:0.1; fill:none" points="1782.18,623.18 1782.18,123.472 "/>
<polyline clip-path="url(#clip672)" style="stroke:#000000; stroke-linecap:round; stroke-linejoin:round; stroke-width:2; stroke-opacity:0.1; fill:none" points="2291.63,623.18 2291.63,123.472 "/>
<polyline clip-path="url(#clip672)" style="stroke:#000000; stroke-linecap:round; stroke-linejoin:round; stroke-width:2; stroke-opacity:0.1; fill:none" points="192.709,438.235 2352.76,438.235 "/>
<polyline clip-path="url(#clip672)" style="stroke:#000000; stroke-linecap:round; stroke-linejoin:round; stroke-width:2; stroke-opacity:0.1; fill:none" points="192.709,147.225 2352.76,147.225 "/>
<polyline clip-path="url(#clip670)" style="stroke:#000000; stroke-linecap:round; stroke-linejoin:round; stroke-width:4; stroke-opacity:1; fill:none" points="192.709,623.18 2352.76,623.18 "/>
<polyline clip-path="url(#clip670)" style="stroke:#000000; stroke-linecap:round; stroke-linejoin:round; stroke-width:4; stroke-opacity:1; fill:none" points="253.84,623.18 253.84,604.282 "/>
<polyline clip-path="url(#clip670)" style="stroke:#000000; stroke-linecap:round; stroke-linejoin:round; stroke-width:4; stroke-opacity:1; fill:none" points="763.286,623.18 763.286,604.282 "/>
<polyline clip-path="url(#clip670)" style="stroke:#000000; stroke-linecap:round; stroke-linejoin:round; stroke-width:4; stroke-opacity:1; fill:none" points="1272.73,623.18 1272.73,604.282 "/>
<polyline clip-path="url(#clip670)" style="stroke:#000000; stroke-linecap:round; stroke-linejoin:round; stroke-width:4; stroke-opacity:1; fill:none" points="1782.18,623.18 1782.18,604.282 "/>
<polyline clip-path="url(#clip670)" style="stroke:#000000; stroke-linecap:round; stroke-linejoin:round; stroke-width:4; stroke-opacity:1; fill:none" points="2291.63,623.18 2291.63,604.282 "/>
<path clip-path="url(#clip670)" d="M200.368 668.751 L230.043 668.751 L230.043 672.686 L200.368 672.686 L200.368 668.751 Z" fill="#000000" fill-rule="nonzero" fill-opacity="1" /><path clip-path="url(#clip670)" d="M240.946 681.645 L248.585 681.645 L248.585 655.279 L240.275 656.946 L240.275 652.687 L248.539 651.02 L253.215 651.02 L253.215 681.645 L260.853 681.645 L260.853 685.58 L240.946 685.58 L240.946 681.645 Z" fill="#000000" fill-rule="nonzero" fill-opacity="1" /><path clip-path="url(#clip670)" d="M270.298 679.7 L275.182 679.7 L275.182 685.58 L270.298 685.58 L270.298 679.7 Z" fill="#000000" fill-rule="nonzero" fill-opacity="1" /><path clip-path="url(#clip670)" d="M295.367 654.099 Q291.756 654.099 289.927 657.663 Q288.122 661.205 288.122 668.335 Q288.122 675.441 289.927 679.006 Q291.756 682.547 295.367 682.547 Q299.001 682.547 300.807 679.006 Q302.636 675.441 302.636 668.335 Q302.636 661.205 300.807 657.663 Q299.001 654.099 295.367 654.099 M295.367 650.395 Q301.177 650.395 304.233 655.001 Q307.312 659.585 307.312 668.335 Q307.312 677.061 304.233 681.668 Q301.177 686.251 295.367 686.251 Q289.557 686.251 286.478 681.668 Q283.423 677.061 283.423 668.335 Q283.423 659.585 286.478 655.001 Q289.557 650.395 295.367 650.395 Z" fill="#000000" fill-rule="nonzero" fill-opacity="1" /><path clip-path="url(#clip670)" d="M710.312 668.751 L739.988 668.751 L739.988 672.686 L710.312 672.686 L710.312 668.751 Z" fill="#000000" fill-rule="nonzero" fill-opacity="1" /><path clip-path="url(#clip670)" d="M760.08 654.099 Q756.469 654.099 754.64 657.663 Q752.835 661.205 752.835 668.335 Q752.835 675.441 754.64 679.006 Q756.469 682.547 760.08 682.547 Q763.714 682.547 765.52 679.006 Q767.349 675.441 767.349 668.335 Q767.349 661.205 765.52 657.663 Q763.714 654.099 760.08 654.099 M760.08 650.395 Q765.89 650.395 768.946 655.001 Q772.024 659.585 772.024 668.335 Q772.024 677.061 768.946 681.668 Q765.89 686.251 760.08 686.251 Q754.27 686.251 751.191 681.668 Q748.136 677.061 748.136 668.335 Q748.136 659.585 751.191 655.001 Q754.27 650.395 760.08 650.395 Z" fill="#000000" fill-rule="nonzero" fill-opacity="1" /><path clip-path="url(#clip670)" d="M780.242 679.7 L785.126 679.7 L785.126 685.58 L780.242 685.58 L780.242 679.7 Z" fill="#000000" fill-rule="nonzero" fill-opacity="1" /><path clip-path="url(#clip670)" d="M795.358 651.02 L813.714 651.02 L813.714 654.955 L799.64 654.955 L799.64 663.427 Q800.659 663.08 801.677 662.918 Q802.696 662.733 803.714 662.733 Q809.501 662.733 812.881 665.904 Q816.26 669.075 816.26 674.492 Q816.26 680.071 812.788 683.172 Q809.316 686.251 802.997 686.251 Q800.821 686.251 798.552 685.881 Q796.307 685.51 793.899 684.77 L793.899 680.071 Q795.983 681.205 798.205 681.76 Q800.427 682.316 802.904 682.316 Q806.909 682.316 809.246 680.21 Q811.584 678.103 811.584 674.492 Q811.584 670.881 809.246 668.774 Q806.909 666.668 802.904 666.668 Q801.029 666.668 799.154 667.085 Q797.302 667.501 795.358 668.381 L795.358 651.02 Z" fill="#000000" fill-rule="nonzero" fill-opacity="1" /><path clip-path="url(#clip670)" d="M1250.12 654.099 Q1246.51 654.099 1244.68 657.663 Q1242.87 661.205 1242.87 668.335 Q1242.87 675.441 1244.68 679.006 Q1246.51 682.547 1250.12 682.547 Q1253.75 682.547 1255.56 679.006 Q1257.39 675.441 1257.39 668.335 Q1257.39 661.205 1255.56 657.663 Q1253.75 654.099 1250.12 654.099 M1250.12 650.395 Q1255.93 650.395 1258.98 655.001 Q1262.06 659.585 1262.06 668.335 Q1262.06 677.061 1258.98 681.668 Q1255.93 686.251 1250.12 686.251 Q1244.31 686.251 1241.23 681.668 Q1238.17 677.061 1238.17 668.335 Q1238.17 659.585 1241.23 655.001 Q1244.31 650.395 1250.12 650.395 Z" fill="#000000" fill-rule="nonzero" fill-opacity="1" /><path clip-path="url(#clip670)" d="M1270.28 679.7 L1275.16 679.7 L1275.16 685.58 L1270.28 685.58 L1270.28 679.7 Z" fill="#000000" fill-rule="nonzero" fill-opacity="1" /><path clip-path="url(#clip670)" d="M1295.35 654.099 Q1291.74 654.099 1289.91 657.663 Q1288.1 661.205 1288.1 668.335 Q1288.1 675.441 1289.91 679.006 Q1291.74 682.547 1295.35 682.547 Q1298.98 682.547 1300.79 679.006 Q1302.62 675.441 1302.62 668.335 Q1302.62 661.205 1300.79 657.663 Q1298.98 654.099 1295.35 654.099 M1295.35 650.395 Q1301.16 650.395 1304.21 655.001 Q1307.29 659.585 1307.29 668.335 Q1307.29 677.061 1304.21 681.668 Q1301.16 686.251 1295.35 686.251 Q1289.54 686.251 1286.46 681.668 Q1283.4 677.061 1283.4 668.335 Q1283.4 659.585 1286.46 655.001 Q1289.54 650.395 1295.35 650.395 Z" fill="#000000" fill-rule="nonzero" fill-opacity="1" /><path clip-path="url(#clip670)" d="M1760.06 654.099 Q1756.45 654.099 1754.62 657.663 Q1752.82 661.205 1752.82 668.335 Q1752.82 675.441 1754.62 679.006 Q1756.45 682.547 1760.06 682.547 Q1763.7 682.547 1765.5 679.006 Q1767.33 675.441 1767.33 668.335 Q1767.33 661.205 1765.5 657.663 Q1763.7 654.099 1760.06 654.099 M1760.06 650.395 Q1765.87 650.395 1768.93 655.001 Q1772.01 659.585 1772.01 668.335 Q1772.01 677.061 1768.93 681.668 Q1765.87 686.251 1760.06 686.251 Q1754.25 686.251 1751.17 681.668 Q1748.12 677.061 1748.12 668.335 Q1748.12 659.585 1751.17 655.001 Q1754.25 650.395 1760.06 650.395 Z" fill="#000000" fill-rule="nonzero" fill-opacity="1" /><path clip-path="url(#clip670)" d="M1780.22 679.7 L1785.11 679.7 L1785.11 685.58 L1780.22 685.58 L1780.22 679.7 Z" fill="#000000" fill-rule="nonzero" fill-opacity="1" /><path clip-path="url(#clip670)" d="M1795.34 651.02 L1813.7 651.02 L1813.7 654.955 L1799.62 654.955 L1799.62 663.427 Q1800.64 663.08 1801.66 662.918 Q1802.68 662.733 1803.7 662.733 Q1809.48 662.733 1812.86 665.904 Q1816.24 669.075 1816.24 674.492 Q1816.24 680.071 1812.77 683.172 Q1809.3 686.251 1802.98 686.251 Q1800.8 686.251 1798.53 685.881 Q1796.29 685.51 1793.88 684.77 L1793.88 680.071 Q1795.96 681.205 1798.19 681.76 Q1800.41 682.316 1802.88 682.316 Q1806.89 682.316 1809.23 680.21 Q1811.57 678.103 1811.57 674.492 Q1811.57 670.881 1809.23 668.774 Q1806.89 666.668 1802.88 666.668 Q1801.01 666.668 1799.13 667.085 Q1797.28 667.501 1795.34 668.381 L1795.34 651.02 Z" fill="#000000" fill-rule="nonzero" fill-opacity="1" /><path clip-path="url(#clip670)" d="M2258.78 681.645 L2266.42 681.645 L2266.42 655.279 L2258.11 656.946 L2258.11 652.687 L2266.37 651.02 L2271.05 651.02 L2271.05 681.645 L2278.69 681.645 L2278.69 685.58 L2258.78 685.58 L2258.78 681.645 Z" fill="#000000" fill-rule="nonzero" fill-opacity="1" /><path clip-path="url(#clip670)" d="M2288.13 679.7 L2293.01 679.7 L2293.01 685.58 L2288.13 685.58 L2288.13 679.7 Z" fill="#000000" fill-rule="nonzero" fill-opacity="1" /><path clip-path="url(#clip670)" d="M2313.2 654.099 Q2309.59 654.099 2307.76 657.663 Q2305.95 661.205 2305.95 668.335 Q2305.95 675.441 2307.76 679.006 Q2309.59 682.547 2313.2 682.547 Q2316.83 682.547 2318.64 679.006 Q2320.47 675.441 2320.47 668.335 Q2320.47 661.205 2318.64 657.663 Q2316.83 654.099 2313.2 654.099 M2313.2 650.395 Q2319.01 650.395 2322.07 655.001 Q2325.14 659.585 2325.14 668.335 Q2325.14 677.061 2322.07 681.668 Q2319.01 686.251 2313.2 686.251 Q2307.39 686.251 2304.31 681.668 Q2301.26 677.061 2301.26 668.335 Q2301.26 659.585 2304.31 655.001 Q2307.39 650.395 2313.2 650.395 Z" fill="#000000" fill-rule="nonzero" fill-opacity="1" /><path clip-path="url(#clip670)" d="M1199.61 733.765 L1199.61 739.239 Q1197.12 737.87 1194.61 737.202 Q1192.13 736.502 1189.58 736.502 Q1183.88 736.502 1180.73 740.13 Q1177.58 743.727 1177.58 750.252 Q1177.58 756.777 1180.73 760.405 Q1183.88 764.002 1189.58 764.002 Q1192.13 764.002 1194.61 763.333 Q1197.12 762.633 1199.61 761.264 L1199.61 766.675 Q1197.16 767.821 1194.51 768.394 Q1191.9 768.967 1188.94 768.967 Q1180.89 768.967 1176.15 763.906 Q1171.41 758.845 1171.41 750.252 Q1171.41 741.531 1176.18 736.534 Q1180.99 731.537 1189.33 731.537 Q1192.03 731.537 1194.61 732.109 Q1197.19 732.651 1199.61 733.765 Z" fill="#000000" fill-rule="nonzero" fill-opacity="1" /><path clip-path="url(#clip670)" d="M1223.61 736.502 Q1218.89 736.502 1216.16 740.194 Q1213.42 743.854 1213.42 750.252 Q1213.42 756.649 1216.13 760.341 Q1218.86 764.002 1223.61 764.002 Q1228.28 764.002 1231.02 760.31 Q1233.76 756.617 1233.76 750.252 Q1233.76 743.918 1231.02 740.226 Q1228.28 736.502 1223.61 736.502 M1223.61 731.537 Q1231.24 731.537 1235.6 736.502 Q1239.97 741.467 1239.97 750.252 Q1239.97 759.005 1235.6 764.002 Q1231.24 768.967 1223.61 768.967 Q1215.93 768.967 1211.57 764.002 Q1207.25 759.005 1207.25 750.252 Q1207.25 741.467 1211.57 736.502 Q1215.93 731.537 1223.61 731.537 Z" fill="#000000" fill-rule="nonzero" fill-opacity="1" /><path clip-path="url(#clip670)" d="M1272.4 733.446 L1272.4 738.984 Q1269.92 737.711 1267.24 737.075 Q1264.57 736.438 1261.7 736.438 Q1257.34 736.438 1255.15 737.775 Q1252.98 739.112 1252.98 741.785 Q1252.98 743.822 1254.54 745 Q1256.1 746.146 1260.81 747.196 L1262.82 747.642 Q1269.06 748.979 1271.67 751.429 Q1274.31 753.848 1274.31 758.209 Q1274.31 763.174 1270.36 766.07 Q1266.45 768.967 1259.57 768.967 Q1256.71 768.967 1253.59 768.394 Q1250.5 767.853 1247.06 766.739 L1247.06 760.691 Q1250.31 762.378 1253.46 763.238 Q1256.61 764.065 1259.7 764.065 Q1263.84 764.065 1266.06 762.665 Q1268.29 761.233 1268.29 758.654 Q1268.29 756.267 1266.67 754.994 Q1265.08 753.721 1259.64 752.543 L1257.6 752.066 Q1252.16 750.92 1249.74 748.565 Q1247.32 746.178 1247.32 742.04 Q1247.32 737.011 1250.88 734.274 Q1254.45 731.537 1261 731.537 Q1264.25 731.537 1267.11 732.014 Q1269.98 732.491 1272.4 733.446 Z" fill="#000000" fill-rule="nonzero" fill-opacity="1" /><path clip-path="url(#clip670)" d="M1297.7 718.582 Q1293.44 725.903 1291.37 733.064 Q1289.3 740.226 1289.3 747.578 Q1289.3 754.93 1291.37 762.156 Q1293.47 769.349 1297.7 776.638 L1292.61 776.638 Q1287.84 769.158 1285.45 761.933 Q1283.09 754.708 1283.09 747.578 Q1283.09 740.48 1285.45 733.287 Q1287.8 726.094 1292.61 718.582 L1297.7 718.582 Z" fill="#000000" fill-rule="nonzero" fill-opacity="1" /><path clip-path="url(#clip670)" d="M1317.34 740.035 L1339.81 740.035 L1339.81 745.446 L1317.34 745.446 L1317.34 740.035 M1328.61 724.884 Q1321.61 724.884 1317.5 730.104 Q1313.36 735.324 1313.36 744.332 Q1313.36 753.307 1317.47 758.527 Q1321.61 763.747 1328.61 763.747 Q1335.61 763.747 1339.72 758.527 Q1343.79 753.307 1343.79 744.332 Q1343.79 735.324 1339.72 730.104 Q1335.61 724.884 1328.61 724.884 M1328.61 719.664 Q1338.6 719.664 1344.59 726.38 Q1350.57 733.064 1350.57 744.332 Q1350.57 755.567 1344.59 762.251 Q1338.6 768.967 1328.61 768.967 Q1318.58 768.967 1312.6 762.283 Q1306.58 755.599 1306.58 744.332 Q1306.58 733.064 1312.6 726.348 Q1318.58 719.664 1328.61 719.664 Z" fill="#000000" fill-rule="nonzero" fill-opacity="1" /><path clip-path="url(#clip670)" d="M1359.45 718.582 L1364.54 718.582 Q1369.32 726.094 1371.67 733.287 Q1374.06 740.48 1374.06 747.578 Q1374.06 754.708 1371.67 761.933 Q1369.32 769.158 1364.54 776.638 L1359.45 776.638 Q1363.68 769.349 1365.75 762.156 Q1367.85 754.93 1367.85 747.578 Q1367.85 740.226 1365.75 733.064 Q1363.68 725.903 1359.45 718.582 Z" fill="#000000" fill-rule="nonzero" fill-opacity="1" /><polyline clip-path="url(#clip670)" style="stroke:#000000; stroke-linecap:round; stroke-linejoin:round; stroke-width:4; stroke-opacity:1; fill:none" points="192.709,623.18 192.709,123.472 "/>
<polyline clip-path="url(#clip670)" style="stroke:#000000; stroke-linecap:round; stroke-linejoin:round; stroke-width:4; stroke-opacity:1; fill:none" points="192.709,438.235 211.607,438.235 "/>
<polyline clip-path="url(#clip670)" style="stroke:#000000; stroke-linecap:round; stroke-linejoin:round; stroke-width:4; stroke-opacity:1; fill:none" points="192.709,147.225 211.607,147.225 "/>
<path clip-path="url(#clip670)" d="M86.0035 458.028 L93.6424 458.028 L93.6424 431.662 L85.3322 433.329 L85.3322 429.07 L93.5961 427.403 L98.272 427.403 L98.272 458.028 L105.911 458.028 L105.911 461.963 L86.0035 461.963 L86.0035 458.028 Z" fill="#000000" fill-rule="nonzero" fill-opacity="1" /><path clip-path="url(#clip670)" d="M125.355 430.482 Q121.744 430.482 119.915 434.046 Q118.11 437.588 118.11 444.718 Q118.11 451.824 119.915 455.389 Q121.744 458.93 125.355 458.93 Q128.989 458.93 130.795 455.389 Q132.624 451.824 132.624 444.718 Q132.624 437.588 130.795 434.046 Q128.989 430.482 125.355 430.482 M125.355 426.778 Q131.165 426.778 134.221 431.384 Q137.3 435.968 137.3 444.718 Q137.3 453.444 134.221 458.051 Q131.165 462.634 125.355 462.634 Q119.545 462.634 116.466 458.051 Q113.411 453.444 113.411 444.718 Q113.411 435.968 116.466 431.384 Q119.545 426.778 125.355 426.778 Z" fill="#000000" fill-rule="nonzero" fill-opacity="1" /><path clip-path="url(#clip670)" d="M147.004 408.974 Q144.07 408.974 142.585 411.87 Q141.118 414.748 141.118 420.541 Q141.118 426.315 142.585 429.211 Q144.07 432.089 147.004 432.089 Q149.957 432.089 151.424 429.211 Q152.91 426.315 152.91 420.541 Q152.91 414.748 151.424 411.87 Q149.957 408.974 147.004 408.974 M147.004 405.965 Q151.725 405.965 154.208 409.707 Q156.709 413.431 156.709 420.541 Q156.709 427.631 154.208 431.374 Q151.725 435.098 147.004 435.098 Q142.284 435.098 139.782 431.374 Q137.3 427.631 137.3 420.541 Q137.3 413.431 139.782 409.707 Q142.284 405.965 147.004 405.965 Z" fill="#000000" fill-rule="nonzero" fill-opacity="1" /><path clip-path="url(#clip670)" d="M87.5834 167.018 L95.2222 167.018 L95.2222 140.652 L86.9121 142.319 L86.9121 138.059 L95.1759 136.393 L99.8518 136.393 L99.8518 167.018 L107.491 167.018 L107.491 170.953 L87.5834 170.953 L87.5834 167.018 Z" fill="#000000" fill-rule="nonzero" fill-opacity="1" /><path clip-path="url(#clip670)" d="M126.935 139.471 Q123.324 139.471 121.495 143.036 Q119.69 146.578 119.69 153.707 Q119.69 160.814 121.495 164.379 Q123.324 167.92 126.935 167.92 Q130.569 167.92 132.375 164.379 Q134.203 160.814 134.203 153.707 Q134.203 146.578 132.375 143.036 Q130.569 139.471 126.935 139.471 M126.935 135.768 Q132.745 135.768 135.801 140.374 Q138.879 144.958 138.879 153.707 Q138.879 162.434 135.801 167.041 Q132.745 171.624 126.935 171.624 Q121.125 171.624 118.046 167.041 Q114.991 162.434 114.991 153.707 Q114.991 144.958 118.046 140.374 Q121.125 135.768 126.935 135.768 Z" fill="#000000" fill-rule="nonzero" fill-opacity="1" /><path clip-path="url(#clip670)" d="M143.45 140.345 L156.709 140.345 L156.709 143.542 L138.879 143.542 L138.879 140.345 Q141.042 138.107 144.766 134.345 Q148.509 130.565 149.468 129.474 Q151.293 127.424 152.007 126.014 Q152.741 124.584 152.741 123.211 Q152.741 120.973 151.161 119.562 Q149.6 118.152 147.08 118.152 Q145.293 118.152 143.299 118.773 Q141.324 119.393 139.067 120.653 L139.067 116.817 Q141.362 115.895 143.356 115.425 Q145.349 114.955 147.004 114.955 Q151.368 114.955 153.963 117.136 Q156.559 119.318 156.559 122.967 Q156.559 124.697 155.9 126.258 Q155.261 127.8 153.549 129.907 Q153.079 130.452 150.559 133.066 Q148.039 135.662 143.45 140.345 Z" fill="#000000" fill-rule="nonzero" fill-opacity="1" /><path clip-path="url(#clip670)" d="M1256.97 9.54393 L1256.97 15.7418 L1249.84 15.7418 Q1245.83 15.7418 1244.25 17.3622 Q1242.72 18.9825 1242.72 23.1955 L1242.72 27.2059 L1254.99 27.2059 L1254.99 32.9987 L1242.72 32.9987 L1242.72 72.576 L1235.22 72.576 L1235.22 32.9987 L1228.09 32.9987 L1228.09 27.2059 L1235.22 27.2059 L1235.22 24.0462 Q1235.22 16.471 1238.75 13.0277 Q1242.27 9.54393 1249.93 9.54393 L1256.97 9.54393 Z" fill="#000000" fill-rule="nonzero" fill-opacity="1" /><path clip-path="url(#clip670)" d="M1261.71 68.12 L1269.98 68.12 L1269.98 43.369 L1260.94 45.0299 L1260.94 40.3308 L1270.26 38.7509 L1275.81 38.7509 L1275.81 68.12 L1284.12 68.12 L1284.12 72.576 L1261.71 72.576 L1261.71 68.12 Z" fill="#000000" fill-rule="nonzero" fill-opacity="1" /><path clip-path="url(#clip670)" d="M1294.97 68.12 L1303.24 68.12 L1303.24 43.369 L1294.2 45.0299 L1294.2 40.3308 L1303.52 38.7509 L1309.07 38.7509 L1309.07 68.12 L1317.37 68.12 L1317.37 72.576 L1294.97 72.576 L1294.97 68.12 Z" fill="#000000" fill-rule="nonzero" fill-opacity="1" /><polyline clip-path="url(#clip672)" style="stroke:#009af9; stroke-linecap:round; stroke-linejoin:round; stroke-width:4; stroke-opacity:1; fill:none" points="253.843,520.974 253.855,521.333 253.878,521.966 253.91,522.851 253.953,523.965 254.006,525.279 254.069,526.765 254.141,528.396 254.224,530.144 254.317,531.982 254.42,533.884 254.533,535.825 254.656,537.78 254.789,539.725 254.932,541.636 255.086,543.492 255.249,545.271 255.422,546.955 255.605,548.523 255.798,549.961 256.002,551.252 256.215,552.385 256.438,553.35 256.672,554.139 256.915,554.748 257.168,555.176 257.432,555.424 257.705,555.497 257.989,555.403 258.282,555.152 258.586,554.757 258.899,554.232 259.222,553.594 259.556,552.859 259.899,552.044 260.253,551.167 260.616,550.244 260.989,549.29 261.373,548.322 261.766,547.352 262.169,546.393 262.583,545.456 263.006,544.549 263.439,543.682 263.882,542.861 264.335,542.09 264.798,541.375 265.271,540.719 265.754,540.123 266.247,539.59 266.749,539.12 267.262,538.713 267.785,538.369 268.317,538.086 268.859,537.864 269.412,537.699 269.974,537.591 270.546,537.535 271.128,537.529 271.72,537.571 272.321,537.658 272.933,537.786 273.554,537.952 274.185,538.155 274.827,538.392 275.477,538.66 276.138,538.957 276.809,539.281 277.489,539.631 278.179,540.003 278.879,540.397 279.589,540.81 280.309,541.24 281.038,541.687 281.778,542.147 282.526,542.62 283.285,543.103 284.054,543.596 284.832,544.097 285.62,544.605 286.417,545.118 287.225,545.635 288.042,546.156 288.869,546.679 289.705,547.204 290.552,547.728 291.408,548.252 292.273,548.774 293.148,549.293 294.033,549.807 294.928,550.316 295.832,550.817 296.746,551.311 297.669,551.797 298.602,552.274 299.545,552.742 300.497,553.201 301.459,553.651 302.431,554.092 303.412,554.525 304.402,554.949 305.402,555.365 306.412,555.773 307.431,556.173 308.46,556.565 309.498,556.949 310.546,557.324 311.603,557.69 312.67,558.047 313.746,558.395 314.831,558.732 315.926,559.06 317.031,559.377 318.145,559.684 319.268,559.98 320.401,560.265 321.543,560.54 322.694,560.804 323.855,561.058 325.025,561.303 326.205,561.537 327.394,561.762 328.592,561.977 329.799,562.183 331.016,562.38 332.242,562.568 333.478,562.747 334.722,562.918 335.976,563.08 337.239,563.234 338.511,563.381 339.793,563.519 341.084,563.649 342.384,563.771 343.693,563.885 345.011,563.99 346.338,564.087 347.675,564.175 349.021,564.253 350.375,564.323 351.739,564.384 353.112,564.436 354.494,564.48 355.885,564.516 357.285,564.545 358.694,564.568 360.112,564.586 361.54,564.599 362.976,564.609 364.421,564.616 365.875,564.621 367.338,564.624 368.81,564.625 370.291,564.624 371.78,564.621 373.279,564.616 374.786,564.608 376.303,564.596 377.828,564.581 379.362,564.561 380.905,564.537 382.456,564.509 384.017,564.477 385.586,564.44 387.164,564.4 388.75,564.356 390.345,564.309 391.95,564.261 393.562,564.211 395.184,564.16 396.814,564.11 398.452,564.061 400.1,564.013 401.755,563.967 403.42,563.923 405.093,563.882 406.775,563.844 408.465,563.81 410.163,563.779 411.871,563.752 413.586,563.729 415.31,563.71 417.043,563.695 418.784,563.684 420.533,563.676 422.291,563.672 424.057,563.671 425.832,563.673 427.615,563.678 429.406,563.685 431.206,563.694 433.014,563.706 434.83,563.719 436.654,563.736 438.487,563.755 440.328,563.778 442.177,563.805 444.034,563.836 445.9,563.873 447.773,563.916 449.655,563.965 451.545,564.021 453.443,564.085 455.349,564.156 457.263,564.235 459.185,564.321 461.115,564.414 463.053,564.515 465,564.622 466.954,564.735 468.916,564.854 470.886,564.979 472.864,565.109 474.849,565.245 476.843,565.387 478.844,565.535 480.854,565.69 482.871,565.851 484.896,566.02 486.928,566.195 488.969,566.378 491.017,566.567 493.073,566.764 495.136,566.968 497.208,567.179 499.287,567.397 501.373,567.622 503.467,567.853 505.569,568.092 507.678,568.337 509.795,568.589 511.919,568.848 514.051,569.114 516.19,569.387 518.337,569.665 520.491,569.95 522.653,570.24 524.822,570.535 526.998,570.834 529.182,571.137 531.373,571.442 533.571,571.75 535.777,572.061 537.99,572.373 540.21,572.687 542.437,573.004 544.672,573.322 546.914,573.644 549.163,573.968 551.419,574.296 553.682,574.628 555.952,574.965 558.229,575.307 560.514,575.654 562.805,576.007 565.104,576.366 567.409,576.729 569.721,577.098 572.041,577.47 574.367,577.846 576.7,578.225 579.04,578.605 581.386,578.986 583.74,579.367 586.1,579.747 588.467,580.126 590.841,580.503 593.222,580.878 595.609,581.25 598.003,581.621 600.404,581.99 602.811,582.358 605.225,582.725 607.645,583.092 610.072,583.459 612.506,583.826 614.946,584.193 617.392,584.56 619.845,584.927 622.305,585.294 624.771,585.661 627.243,586.027 629.722,586.393 632.207,586.758 634.698,587.122 637.195,587.485 639.699,587.847 642.209,588.208 644.725,588.567 647.248,588.924 649.777,589.279 652.311,589.631 654.852,589.98 657.399,590.326 659.952,590.67 662.511,591.01 665.076,591.348 667.647,591.684 670.225,592.017 672.808,592.348 675.396,592.678 677.991,593.007 680.592,593.334 683.198,593.66 685.811,593.984 688.429,594.307 691.053,594.628 693.682,594.946 696.318,595.261 698.959,595.573 701.605,595.88 704.258,596.184 706.915,596.484 709.579,596.779 712.248,597.069 714.922,597.355 717.603,597.636 720.288,597.912 722.979,598.184 725.675,598.452 728.377,598.716 731.084,598.976 733.797,599.234 736.515,599.488 739.238,599.74 741.966,599.989 744.7,600.237 747.438,600.483 750.182,600.727 752.932,600.97 755.686,601.21 758.445,601.449 761.21,601.686 763.979,601.919 766.753,602.15 769.533,602.378 772.317,602.601 775.107,602.821 777.901,603.036 780.7,603.246 783.504,603.452 786.313,603.653 789.127,603.849 791.945,604.04 794.768,604.227 797.596,604.409 800.428,604.586 803.266,604.759 806.107,604.928 808.954,605.094 811.805,605.256 814.66,605.415 817.52,605.571 820.385,605.724 823.254,605.875 826.127,606.023 829.005,606.169 831.887,606.312 834.774,606.452 837.665,606.59 840.56,606.725 843.459,606.857 846.363,606.985 849.271,607.109 852.183,607.229 855.099,607.345 858.019,607.456 860.944,607.563 863.872,607.664 866.805,607.761 869.741,607.854 872.681,607.942 875.626,608.025 878.574,608.104 881.526,608.179 884.482,608.25 887.442,608.317 890.406,608.381 893.373,608.442 896.345,608.499 899.319,608.554 902.298,608.607 905.28,608.656 908.266,608.704 911.256,608.749 914.249,608.791 917.245,608.831 920.245,608.868 923.249,608.901 926.256,608.932 929.266,608.96 932.28,608.983 935.297,609.003 938.317,609.018 941.341,609.029 944.368,609.035 947.399,609.037 950.432,609.035 953.469,609.027 956.508,609.016 959.551,609 962.597,608.981 965.646,608.957 968.698,608.93 971.754,608.899 974.812,608.865 977.873,608.827 980.936,608.787 984.003,608.744 987.073,608.698 990.145,608.649 993.221,608.598 996.299,608.543 999.379,608.485 1002.46,608.424 1005.55,608.359 1008.64,608.291 1011.73,608.219 1014.82,608.144 1017.92,608.066 1021.02,607.984 1024.12,607.899 1027.22,607.811 1030.33,607.719 1033.44,607.625 1036.55,607.527 1039.66,607.426 1042.78,607.321 1045.9,607.213 1049.02,607.102 1052.14,606.987 1055.26,606.868 1058.39,606.745 1061.52,606.618 1064.65,606.487 1067.78,606.351 1070.92,606.212 1074.05,606.07 1077.19,605.923 1080.33,605.774 1083.48,605.621 1086.62,605.465 1089.77,605.306 1092.92,605.144 1096.07,604.98 1099.22,604.813 1102.37,604.643 1105.53,604.471 1108.68,604.297 1111.84,604.12 1115,603.94 1118.16,603.757 1121.33,603.572 1124.49,603.385 1127.66,603.194 1130.82,603 1133.99,602.803 1137.16,602.602 1140.34,602.397 1143.51,602.188 1146.68,601.975 1149.86,601.758 1153.03,601.537 1156.21,601.311 1159.39,601.082 1162.57,600.849 1165.75,600.612 1168.93,600.373 1172.12,600.13 1175.3,599.885 1178.49,599.637 1181.67,599.387 1184.86,599.134 1188.05,598.879 1191.24,598.622 1194.43,598.362 1197.62,598.1 1200.81,597.835 1204,597.568 1207.19,597.298 1210.38,597.026 1213.58,596.751 1216.77,596.472 1219.97,596.191 1223.16,595.907 1226.36,595.619 1229.55,595.329 1232.75,595.035 1235.95,594.739 1239.15,594.439 1242.34,594.136 1245.54,593.831 1248.74,593.522 1251.94,593.211 1255.14,592.897 1258.34,592.581 1261.54,592.261 1264.73,591.939 1267.93,591.615 1271.13,591.287 1274.33,590.957 1277.53,590.625 1280.73,590.29 1283.93,589.952 1287.13,589.612 1290.33,589.269 1293.53,588.924 1296.73,588.576 1299.92,588.225 1303.12,587.872 1306.32,587.516 1309.52,587.158 1312.71,586.796 1315.91,586.432 1319.11,586.065 1322.3,585.695 1325.5,585.323 1328.69,584.947 1331.89,584.57 1335.08,584.189 1338.27,583.807 1341.47,583.421 1344.66,583.034 1347.85,582.644 1351.04,582.253 1354.23,581.859 1357.42,581.462 1360.61,581.064 1363.79,580.664 1366.98,580.262 1370.16,579.857 1373.35,579.451 1376.53,579.043 1379.71,578.633 1382.89,578.221 1386.07,577.807 1389.25,577.391 1392.43,576.973 1395.61,576.553 1398.78,576.13 1401.96,575.704 1405.13,575.276 1408.3,574.845 1411.47,574.411 1414.64,573.975 1417.81,573.535 1420.97,573.093 1424.14,572.649 1427.3,572.201 1430.46,571.752 1433.62,571.299 1436.78,570.845 1439.94,570.388 1443.09,569.929 1446.25,569.468 1449.4,569.005 1452.55,568.54 1455.7,568.074 1458.84,567.606 1461.99,567.136 1465.13,566.665 1468.27,566.193 1471.41,565.719 1474.55,565.243 1477.68,564.766 1480.82,564.287 1483.95,563.806 1487.08,563.323 1490.2,562.838 1493.33,562.351 1496.45,561.862 1499.57,561.371 1502.69,560.878 1505.8,560.383 1508.92,559.885 1512.03,559.386 1515.14,558.884 1518.24,558.38 1521.35,557.873 1524.45,557.364 1527.55,556.853 1530.64,556.339 1533.74,555.823 1536.83,555.304 1539.92,554.783 1543,554.26 1546.09,553.736 1549.17,553.209 1552.24,552.681 1555.32,552.151 1558.39,551.62 1561.46,551.088 1564.53,550.555 1567.59,550.021 1570.65,549.486 1573.71,548.949 1576.77,548.412 1579.82,547.873 1582.87,547.332 1585.91,546.79 1588.96,546.245 1592,545.699 1595.03,545.149 1598.07,544.598 1601.1,544.043 1604.12,543.486 1607.15,542.926 1610.17,542.362 1613.19,541.796 1616.2,541.227 1619.21,540.656 1622.22,540.083 1625.22,539.508 1628.22,538.931 1631.22,538.354 1634.21,537.776 1637.2,537.198 1640.18,536.62 1643.17,536.041 1646.15,535.463 1649.12,534.884 1652.09,534.305 1655.06,533.725 1658.02,533.144 1660.98,532.562 1663.94,531.978 1666.89,531.392 1669.84,530.803 1672.78,530.211 1675.72,529.615 1678.66,529.017 1681.59,528.415 1684.52,527.809 1687.45,527.2 1690.37,526.588 1693.28,525.973 1696.19,525.355 1699.1,524.735 1702.01,524.114 1704.91,523.491 1707.8,522.867 1710.69,522.243 1713.58,521.618 1716.46,520.993 1719.34,520.368 1722.21,519.743 1725.08,519.118 1727.94,518.493 1730.8,517.867 1733.66,517.241 1736.51,516.614 1739.36,515.987 1742.2,515.357 1745.04,514.727 1747.87,514.094 1750.7,513.459 1753.52,512.822 1756.34,512.181 1759.15,511.539 1761.96,510.893 1764.76,510.244 1767.56,509.592 1770.36,508.937 1773.15,508.279 1775.93,507.619 1778.71,506.957 1781.49,506.293 1784.26,505.626 1787.02,504.959 1789.78,504.289 1792.53,503.619 1795.28,502.948 1798.03,502.276 1800.77,501.604 1803.5,500.931 1806.23,500.257 1808.95,499.584 1811.67,498.91 1814.38,498.235 1817.09,497.56 1819.79,496.884 1822.49,496.206 1825.18,495.527 1827.86,494.846 1830.54,494.164 1833.22,493.479 1835.89,492.792 1838.55,492.102 1841.21,491.41 1843.86,490.716 1846.51,490.019 1849.15,489.32 1851.78,488.618 1854.41,487.914 1857.04,487.208 1859.65,486.5 1862.27,485.79 1864.87,485.079 1867.47,484.366 1870.07,483.652 1872.66,482.937 1875.24,482.221 1877.82,481.505 1880.39,480.788 1882.95,480.07 1885.51,479.352 1888.07,478.633 1890.61,477.912 1893.15,477.191 1895.69,476.468 1898.22,475.743 1900.74,475.016 1903.26,474.288 1905.77,473.557 1908.27,472.825 1910.77,472.09 1913.26,471.353 1915.74,470.614 1918.22,469.873 1920.69,469.13 1923.16,468.384 1925.62,467.638 1928.07,466.889 1930.52,466.138 1932.96,465.386 1935.39,464.633 1937.82,463.878 1940.24,463.122 1942.65,462.364 1945.06,461.606 1947.46,460.847 1949.86,460.086 1952.24,459.325 1954.62,458.563 1957,457.799 1959.36,457.034 1961.73,456.268 1964.08,455.499 1966.43,454.73 1968.77,453.958 1971.1,453.184 1973.42,452.408 1975.74,451.631 1978.06,450.851 1980.36,450.069 1982.66,449.286 1984.95,448.501 1987.24,447.714 1989.51,446.926 1991.78,446.136 1994.05,445.344 1996.3,444.552 1998.55,443.757 2000.79,442.961 2003.03,442.164 2005.26,441.365 2007.48,440.565 2009.69,439.762 2011.89,438.959 2014.09,438.154 2016.28,437.347 2018.47,436.538 2020.64,435.728 2022.81,434.915 2024.97,434.102 2027.13,433.286 2029.27,432.468 2031.41,431.649 2033.55,430.829 2035.67,430.006 2037.79,429.182 2039.9,428.357 2042,427.531 2044.09,426.703 2046.18,425.873 2048.26,425.043 2050.33,424.211 2052.39,423.378 2054.45,422.543 2056.5,421.707 2058.54,420.869 2060.57,420.03 2062.59,419.188 2064.61,418.345 2066.62,417.5 2068.62,416.653 2070.62,415.804 2072.6,414.953 2074.58,414.1 2076.55,413.245 2078.51,412.387 2080.47,411.528 2082.41,410.667 2084.35,409.804 2086.28,408.939 2088.2,408.072 2090.12,407.204 2092.02,406.333 2093.92,405.462 2095.81,404.589 2097.69,403.714 2099.57,402.838 2101.43,401.96 2103.29,401.082 2105.14,400.202 2106.98,399.32 2108.81,398.437 2110.64,397.553 2112.45,396.667 2114.26,395.78 2116.06,394.891 2117.85,394 2119.63,393.107 2121.41,392.212 2123.17,391.315 2124.93,390.416 2126.68,389.514 2128.42,388.611 2130.15,387.706 2131.88,386.798 2133.59,385.889 2135.3,384.978 2137,384.064 2138.69,383.149 2140.37,382.231 2142.05,381.312 2143.71,380.39 2145.37,379.467 2147.01,378.542 2148.65,377.615 2150.28,376.685 2151.9,375.754 2153.52,374.821 2155.12,373.886 2156.71,372.949 2158.3,372.01 2159.88,371.069 2161.45,370.126 2163.01,369.181 2164.56,368.235 2166.1,367.286 2167.64,366.335 2169.16,365.383 2170.68,364.428 2172.19,363.471 2173.68,362.513 2175.17,361.552 2176.66,360.589 2178.13,359.624 2179.59,358.656 2181.04,357.686 2182.49,356.714 2183.93,355.74 2185.35,354.763 2186.77,353.783 2188.18,352.801 2189.58,351.816 2190.97,350.828 2192.35,349.838 2193.73,348.845 2195.09,347.848 2196.44,346.849 2197.79,345.847 2199.13,344.842 2200.45,343.834 2201.77,342.823 2203.08,341.809 2204.38,340.793 2205.67,339.773 2206.95,338.751 2208.23,337.726 2209.49,336.698 2210.74,335.666 2211.99,334.632 2213.22,333.595 2214.45,332.555 2215.67,331.512 2216.87,330.465 2218.07,329.415 2219.26,328.362 2220.44,327.305 2221.61,326.244 2222.77,325.18 2223.92,324.111 2225.06,323.039 2226.2,321.963 2227.32,320.882 2228.43,319.796 2229.54,318.707 2230.63,317.612 2231.72,316.513 2232.8,315.408 2233.86,314.299 2234.92,313.184 2235.97,312.064 2237.01,310.938 2238.03,309.807 2239.05,308.671 2240.06,307.528 2241.06,306.38 2242.05,305.226 2243.03,304.066 2244.01,302.9 2244.97,301.728 2245.92,300.55 2246.86,299.365 2247.8,298.174 2248.72,296.976 2249.63,295.771 2250.54,294.559 2251.43,293.34 2252.32,292.113 2253.19,290.879 2254.06,289.636 2254.91,288.385 2255.76,287.125 2256.6,285.857 2257.42,284.579 2258.24,283.292 2259.05,281.995 2259.85,280.688 2260.63,279.371 2261.41,278.044 2262.18,276.705 2262.94,275.356 2263.69,273.995 2264.43,272.623 2265.16,271.239 2265.88,269.843 2266.59,268.435 2267.29,267.014 2267.98,265.579 2268.66,264.132 2269.33,262.671 2269.99,261.196 2270.64,259.707 2271.28,258.203 2271.91,256.685 2272.53,255.151 2273.14,253.601 2273.75,252.036 2274.34,250.454 2274.92,248.856 2275.49,247.24 2276.05,245.607 2276.61,243.957 2277.15,242.288 2277.68,240.6 2278.2,238.894 2278.72,237.168 2279.22,235.423 2279.71,233.659 2280.19,231.874 2280.67,230.068 2281.13,228.243 2281.58,226.396 2282.03,224.528 2282.46,222.639 2282.88,220.728 2283.3,218.795 2283.7,216.841 2284.09,214.864 2284.48,212.865 2284.85,210.844 2285.21,208.8 2285.57,206.734 2285.91,204.646 2286.24,202.535 2286.57,200.403 2286.88,198.249 2287.18,196.073 2287.48,193.877 2287.76,191.66 2288.03,189.424 2288.3,187.17 2288.55,184.898 2288.79,182.609 2289.03,180.306 2289.25,177.99 2289.46,175.662 2289.67,173.327 2289.86,170.985 2290.04,168.642 2290.22,166.3 2290.38,163.965 2290.53,161.642 2290.68,159.337 2290.81,157.059 2290.93,154.816 2291.04,152.619 2291.15,150.48 2291.24,148.416 2291.32,146.444 2291.4,144.586 2291.46,142.867 2291.51,141.318 2291.55,139.976 2291.59,138.881 2291.61,138.079 2291.62,137.615 "/>
<path clip-path="url(#clip670)" d="M192.709 1423.18 L2352.76 1423.18 L2352.76 923.472 L192.709 923.472  Z" fill="#ffffff" fill-rule="evenodd" fill-opacity="1"/>
<polyline clip-path="url(#clip671)" style="stroke:#000000; stroke-linecap:round; stroke-linejoin:round; stroke-width:2; stroke-opacity:0.1; fill:none" points="253.84,1423.18 253.84,923.472 "/>
<polyline clip-path="url(#clip671)" style="stroke:#000000; stroke-linecap:round; stroke-linejoin:round; stroke-width:2; stroke-opacity:0.1; fill:none" points="763.286,1423.18 763.286,923.472 "/>
<polyline clip-path="url(#clip671)" style="stroke:#000000; stroke-linecap:round; stroke-linejoin:round; stroke-width:2; stroke-opacity:0.1; fill:none" points="1272.73,1423.18 1272.73,923.472 "/>
<polyline clip-path="url(#clip671)" style="stroke:#000000; stroke-linecap:round; stroke-linejoin:round; stroke-width:2; stroke-opacity:0.1; fill:none" points="1782.18,1423.18 1782.18,923.472 "/>
<polyline clip-path="url(#clip671)" style="stroke:#000000; stroke-linecap:round; stroke-linejoin:round; stroke-width:2; stroke-opacity:0.1; fill:none" points="2291.63,1423.18 2291.63,923.472 "/>
<polyline clip-path="url(#clip671)" style="stroke:#000000; stroke-linecap:round; stroke-linejoin:round; stroke-width:2; stroke-opacity:0.1; fill:none" points="192.709,1382.29 2352.76,1382.29 "/>
<polyline clip-path="url(#clip671)" style="stroke:#000000; stroke-linecap:round; stroke-linejoin:round; stroke-width:2; stroke-opacity:0.1; fill:none" points="192.709,1310.75 2352.76,1310.75 "/>
<polyline clip-path="url(#clip671)" style="stroke:#000000; stroke-linecap:round; stroke-linejoin:round; stroke-width:2; stroke-opacity:0.1; fill:none" points="192.709,1239.21 2352.76,1239.21 "/>
<polyline clip-path="url(#clip671)" style="stroke:#000000; stroke-linecap:round; stroke-linejoin:round; stroke-width:2; stroke-opacity:0.1; fill:none" points="192.709,1167.67 2352.76,1167.67 "/>
<polyline clip-path="url(#clip671)" style="stroke:#000000; stroke-linecap:round; stroke-linejoin:round; stroke-width:2; stroke-opacity:0.1; fill:none" points="192.709,1096.13 2352.76,1096.13 "/>
<polyline clip-path="url(#clip671)" style="stroke:#000000; stroke-linecap:round; stroke-linejoin:round; stroke-width:2; stroke-opacity:0.1; fill:none" points="192.709,1024.59 2352.76,1024.59 "/>
<polyline clip-path="url(#clip671)" style="stroke:#000000; stroke-linecap:round; stroke-linejoin:round; stroke-width:2; stroke-opacity:0.1; fill:none" points="192.709,953.051 2352.76,953.051 "/>
<polyline clip-path="url(#clip670)" style="stroke:#000000; stroke-linecap:round; stroke-linejoin:round; stroke-width:4; stroke-opacity:1; fill:none" points="192.709,1423.18 2352.76,1423.18 "/>
<polyline clip-path="url(#clip670)" style="stroke:#000000; stroke-linecap:round; stroke-linejoin:round; stroke-width:4; stroke-opacity:1; fill:none" points="253.84,1423.18 253.84,1404.28 "/>
<polyline clip-path="url(#clip670)" style="stroke:#000000; stroke-linecap:round; stroke-linejoin:round; stroke-width:4; stroke-opacity:1; fill:none" points="763.286,1423.18 763.286,1404.28 "/>
<polyline clip-path="url(#clip670)" style="stroke:#000000; stroke-linecap:round; stroke-linejoin:round; stroke-width:4; stroke-opacity:1; fill:none" points="1272.73,1423.18 1272.73,1404.28 "/>
<polyline clip-path="url(#clip670)" style="stroke:#000000; stroke-linecap:round; stroke-linejoin:round; stroke-width:4; stroke-opacity:1; fill:none" points="1782.18,1423.18 1782.18,1404.28 "/>
<polyline clip-path="url(#clip670)" style="stroke:#000000; stroke-linecap:round; stroke-linejoin:round; stroke-width:4; stroke-opacity:1; fill:none" points="2291.63,1423.18 2291.63,1404.28 "/>
<path clip-path="url(#clip670)" d="M200.368 1468.75 L230.043 1468.75 L230.043 1472.69 L200.368 1472.69 L200.368 1468.75 Z" fill="#000000" fill-rule="nonzero" fill-opacity="1" /><path clip-path="url(#clip670)" d="M240.946 1481.64 L248.585 1481.64 L248.585 1455.28 L240.275 1456.95 L240.275 1452.69 L248.539 1451.02 L253.215 1451.02 L253.215 1481.64 L260.853 1481.64 L260.853 1485.58 L240.946 1485.58 L240.946 1481.64 Z" fill="#000000" fill-rule="nonzero" fill-opacity="1" /><path clip-path="url(#clip670)" d="M270.298 1479.7 L275.182 1479.7 L275.182 1485.58 L270.298 1485.58 L270.298 1479.7 Z" fill="#000000" fill-rule="nonzero" fill-opacity="1" /><path clip-path="url(#clip670)" d="M295.367 1454.1 Q291.756 1454.1 289.927 1457.66 Q288.122 1461.2 288.122 1468.33 Q288.122 1475.44 289.927 1479.01 Q291.756 1482.55 295.367 1482.55 Q299.001 1482.55 300.807 1479.01 Q302.636 1475.44 302.636 1468.33 Q302.636 1461.2 300.807 1457.66 Q299.001 1454.1 295.367 1454.1 M295.367 1450.39 Q301.177 1450.39 304.233 1455 Q307.312 1459.58 307.312 1468.33 Q307.312 1477.06 304.233 1481.67 Q301.177 1486.25 295.367 1486.25 Q289.557 1486.25 286.478 1481.67 Q283.423 1477.06 283.423 1468.33 Q283.423 1459.58 286.478 1455 Q289.557 1450.39 295.367 1450.39 Z" fill="#000000" fill-rule="nonzero" fill-opacity="1" /><path clip-path="url(#clip670)" d="M710.312 1468.75 L739.988 1468.75 L739.988 1472.69 L710.312 1472.69 L710.312 1468.75 Z" fill="#000000" fill-rule="nonzero" fill-opacity="1" /><path clip-path="url(#clip670)" d="M760.08 1454.1 Q756.469 1454.1 754.64 1457.66 Q752.835 1461.2 752.835 1468.33 Q752.835 1475.44 754.64 1479.01 Q756.469 1482.55 760.08 1482.55 Q763.714 1482.55 765.52 1479.01 Q767.349 1475.44 767.349 1468.33 Q767.349 1461.2 765.52 1457.66 Q763.714 1454.1 760.08 1454.1 M760.08 1450.39 Q765.89 1450.39 768.946 1455 Q772.024 1459.58 772.024 1468.33 Q772.024 1477.06 768.946 1481.67 Q765.89 1486.25 760.08 1486.25 Q754.27 1486.25 751.191 1481.67 Q748.136 1477.06 748.136 1468.33 Q748.136 1459.58 751.191 1455 Q754.27 1450.39 760.08 1450.39 Z" fill="#000000" fill-rule="nonzero" fill-opacity="1" /><path clip-path="url(#clip670)" d="M780.242 1479.7 L785.126 1479.7 L785.126 1485.58 L780.242 1485.58 L780.242 1479.7 Z" fill="#000000" fill-rule="nonzero" fill-opacity="1" /><path clip-path="url(#clip670)" d="M795.358 1451.02 L813.714 1451.02 L813.714 1454.96 L799.64 1454.96 L799.64 1463.43 Q800.659 1463.08 801.677 1462.92 Q802.696 1462.73 803.714 1462.73 Q809.501 1462.73 812.881 1465.9 Q816.26 1469.08 816.26 1474.49 Q816.26 1480.07 812.788 1483.17 Q809.316 1486.25 802.997 1486.25 Q800.821 1486.25 798.552 1485.88 Q796.307 1485.51 793.899 1484.77 L793.899 1480.07 Q795.983 1481.2 798.205 1481.76 Q800.427 1482.32 802.904 1482.32 Q806.909 1482.32 809.246 1480.21 Q811.584 1478.1 811.584 1474.49 Q811.584 1470.88 809.246 1468.77 Q806.909 1466.67 802.904 1466.67 Q801.029 1466.67 799.154 1467.08 Q797.302 1467.5 795.358 1468.38 L795.358 1451.02 Z" fill="#000000" fill-rule="nonzero" fill-opacity="1" /><path clip-path="url(#clip670)" d="M1250.12 1454.1 Q1246.51 1454.1 1244.68 1457.66 Q1242.87 1461.2 1242.87 1468.33 Q1242.87 1475.44 1244.68 1479.01 Q1246.51 1482.55 1250.12 1482.55 Q1253.75 1482.55 1255.56 1479.01 Q1257.39 1475.44 1257.39 1468.33 Q1257.39 1461.2 1255.56 1457.66 Q1253.75 1454.1 1250.12 1454.1 M1250.12 1450.39 Q1255.93 1450.39 1258.98 1455 Q1262.06 1459.58 1262.06 1468.33 Q1262.06 1477.06 1258.98 1481.67 Q1255.93 1486.25 1250.12 1486.25 Q1244.31 1486.25 1241.23 1481.67 Q1238.17 1477.06 1238.17 1468.33 Q1238.17 1459.58 1241.23 1455 Q1244.31 1450.39 1250.12 1450.39 Z" fill="#000000" fill-rule="nonzero" fill-opacity="1" /><path clip-path="url(#clip670)" d="M1270.28 1479.7 L1275.16 1479.7 L1275.16 1485.58 L1270.28 1485.58 L1270.28 1479.7 Z" fill="#000000" fill-rule="nonzero" fill-opacity="1" /><path clip-path="url(#clip670)" d="M1295.35 1454.1 Q1291.74 1454.1 1289.91 1457.66 Q1288.1 1461.2 1288.1 1468.33 Q1288.1 1475.44 1289.91 1479.01 Q1291.74 1482.55 1295.35 1482.55 Q1298.98 1482.55 1300.79 1479.01 Q1302.62 1475.44 1302.62 1468.33 Q1302.62 1461.2 1300.79 1457.66 Q1298.98 1454.1 1295.35 1454.1 M1295.35 1450.39 Q1301.16 1450.39 1304.21 1455 Q1307.29 1459.58 1307.29 1468.33 Q1307.29 1477.06 1304.21 1481.67 Q1301.16 1486.25 1295.35 1486.25 Q1289.54 1486.25 1286.46 1481.67 Q1283.4 1477.06 1283.4 1468.33 Q1283.4 1459.58 1286.46 1455 Q1289.54 1450.39 1295.35 1450.39 Z" fill="#000000" fill-rule="nonzero" fill-opacity="1" /><path clip-path="url(#clip670)" d="M1760.06 1454.1 Q1756.45 1454.1 1754.62 1457.66 Q1752.82 1461.2 1752.82 1468.33 Q1752.82 1475.44 1754.62 1479.01 Q1756.45 1482.55 1760.06 1482.55 Q1763.7 1482.55 1765.5 1479.01 Q1767.33 1475.44 1767.33 1468.33 Q1767.33 1461.2 1765.5 1457.66 Q1763.7 1454.1 1760.06 1454.1 M1760.06 1450.39 Q1765.87 1450.39 1768.93 1455 Q1772.01 1459.58 1772.01 1468.33 Q1772.01 1477.06 1768.93 1481.67 Q1765.87 1486.25 1760.06 1486.25 Q1754.25 1486.25 1751.17 1481.67 Q1748.12 1477.06 1748.12 1468.33 Q1748.12 1459.58 1751.17 1455 Q1754.25 1450.39 1760.06 1450.39 Z" fill="#000000" fill-rule="nonzero" fill-opacity="1" /><path clip-path="url(#clip670)" d="M1780.22 1479.7 L1785.11 1479.7 L1785.11 1485.58 L1780.22 1485.58 L1780.22 1479.7 Z" fill="#000000" fill-rule="nonzero" fill-opacity="1" /><path clip-path="url(#clip670)" d="M1795.34 1451.02 L1813.7 1451.02 L1813.7 1454.96 L1799.62 1454.96 L1799.62 1463.43 Q1800.64 1463.08 1801.66 1462.92 Q1802.68 1462.73 1803.7 1462.73 Q1809.48 1462.73 1812.86 1465.9 Q1816.24 1469.08 1816.24 1474.49 Q1816.24 1480.07 1812.77 1483.17 Q1809.3 1486.25 1802.98 1486.25 Q1800.8 1486.25 1798.53 1485.88 Q1796.29 1485.51 1793.88 1484.77 L1793.88 1480.07 Q1795.96 1481.2 1798.19 1481.76 Q1800.41 1482.32 1802.88 1482.32 Q1806.89 1482.32 1809.23 1480.21 Q1811.57 1478.1 1811.57 1474.49 Q1811.57 1470.88 1809.23 1468.77 Q1806.89 1466.67 1802.88 1466.67 Q1801.01 1466.67 1799.13 1467.08 Q1797.28 1467.5 1795.34 1468.38 L1795.34 1451.02 Z" fill="#000000" fill-rule="nonzero" fill-opacity="1" /><path clip-path="url(#clip670)" d="M2258.78 1481.64 L2266.42 1481.64 L2266.42 1455.28 L2258.11 1456.95 L2258.11 1452.69 L2266.37 1451.02 L2271.05 1451.02 L2271.05 1481.64 L2278.69 1481.64 L2278.69 1485.58 L2258.78 1485.58 L2258.78 1481.64 Z" fill="#000000" fill-rule="nonzero" fill-opacity="1" /><path clip-path="url(#clip670)" d="M2288.13 1479.7 L2293.01 1479.7 L2293.01 1485.58 L2288.13 1485.58 L2288.13 1479.7 Z" fill="#000000" fill-rule="nonzero" fill-opacity="1" /><path clip-path="url(#clip670)" d="M2313.2 1454.1 Q2309.59 1454.1 2307.76 1457.66 Q2305.95 1461.2 2305.95 1468.33 Q2305.95 1475.44 2307.76 1479.01 Q2309.59 1482.55 2313.2 1482.55 Q2316.83 1482.55 2318.64 1479.01 Q2320.47 1475.44 2320.47 1468.33 Q2320.47 1461.2 2318.64 1457.66 Q2316.83 1454.1 2313.2 1454.1 M2313.2 1450.39 Q2319.01 1450.39 2322.07 1455 Q2325.14 1459.58 2325.14 1468.33 Q2325.14 1477.06 2322.07 1481.67 Q2319.01 1486.25 2313.2 1486.25 Q2307.39 1486.25 2304.31 1481.67 Q2301.26 1477.06 2301.26 1468.33 Q2301.26 1459.58 2304.31 1455 Q2307.39 1450.39 2313.2 1450.39 Z" fill="#000000" fill-rule="nonzero" fill-opacity="1" /><path clip-path="url(#clip670)" d="M1199.61 1533.76 L1199.61 1539.24 Q1197.12 1537.87 1194.61 1537.2 Q1192.13 1536.5 1189.58 1536.5 Q1183.88 1536.5 1180.73 1540.13 Q1177.58 1543.73 1177.58 1550.25 Q1177.58 1556.78 1180.73 1560.4 Q1183.88 1564 1189.58 1564 Q1192.13 1564 1194.61 1563.33 Q1197.12 1562.63 1199.61 1561.26 L1199.61 1566.68 Q1197.16 1567.82 1194.51 1568.39 Q1191.9 1568.97 1188.94 1568.97 Q1180.89 1568.97 1176.15 1563.91 Q1171.41 1558.85 1171.41 1550.25 Q1171.41 1541.53 1176.18 1536.53 Q1180.99 1531.54 1189.33 1531.54 Q1192.03 1531.54 1194.61 1532.11 Q1197.19 1532.65 1199.61 1533.76 Z" fill="#000000" fill-rule="nonzero" fill-opacity="1" /><path clip-path="url(#clip670)" d="M1223.61 1536.5 Q1218.89 1536.5 1216.16 1540.19 Q1213.42 1543.85 1213.42 1550.25 Q1213.42 1556.65 1216.13 1560.34 Q1218.86 1564 1223.61 1564 Q1228.28 1564 1231.02 1560.31 Q1233.76 1556.62 1233.76 1550.25 Q1233.76 1543.92 1231.02 1540.23 Q1228.28 1536.5 1223.61 1536.5 M1223.61 1531.54 Q1231.24 1531.54 1235.6 1536.5 Q1239.97 1541.47 1239.97 1550.25 Q1239.97 1559 1235.6 1564 Q1231.24 1568.97 1223.61 1568.97 Q1215.93 1568.97 1211.57 1564 Q1207.25 1559 1207.25 1550.25 Q1207.25 1541.47 1211.57 1536.5 Q1215.93 1531.54 1223.61 1531.54 Z" fill="#000000" fill-rule="nonzero" fill-opacity="1" /><path clip-path="url(#clip670)" d="M1272.4 1533.45 L1272.4 1538.98 Q1269.92 1537.71 1267.24 1537.07 Q1264.57 1536.44 1261.7 1536.44 Q1257.34 1536.44 1255.15 1537.77 Q1252.98 1539.11 1252.98 1541.79 Q1252.98 1543.82 1254.54 1545 Q1256.1 1546.15 1260.81 1547.2 L1262.82 1547.64 Q1269.06 1548.98 1271.67 1551.43 Q1274.31 1553.85 1274.31 1558.21 Q1274.31 1563.17 1270.36 1566.07 Q1266.45 1568.97 1259.57 1568.97 Q1256.71 1568.97 1253.59 1568.39 Q1250.5 1567.85 1247.06 1566.74 L1247.06 1560.69 Q1250.31 1562.38 1253.46 1563.24 Q1256.61 1564.07 1259.7 1564.07 Q1263.84 1564.07 1266.06 1562.66 Q1268.29 1561.23 1268.29 1558.65 Q1268.29 1556.27 1266.67 1554.99 Q1265.08 1553.72 1259.64 1552.54 L1257.6 1552.07 Q1252.16 1550.92 1249.74 1548.56 Q1247.32 1546.18 1247.32 1542.04 Q1247.32 1537.01 1250.88 1534.27 Q1254.45 1531.54 1261 1531.54 Q1264.25 1531.54 1267.11 1532.01 Q1269.98 1532.49 1272.4 1533.45 Z" fill="#000000" fill-rule="nonzero" fill-opacity="1" /><path clip-path="url(#clip670)" d="M1297.7 1518.58 Q1293.44 1525.9 1291.37 1533.06 Q1289.3 1540.23 1289.3 1547.58 Q1289.3 1554.93 1291.37 1562.16 Q1293.47 1569.35 1297.7 1576.64 L1292.61 1576.64 Q1287.84 1569.16 1285.45 1561.93 Q1283.09 1554.71 1283.09 1547.58 Q1283.09 1540.48 1285.45 1533.29 Q1287.8 1526.09 1292.61 1518.58 L1297.7 1518.58 Z" fill="#000000" fill-rule="nonzero" fill-opacity="1" /><path clip-path="url(#clip670)" d="M1317.34 1540.03 L1339.81 1540.03 L1339.81 1545.45 L1317.34 1545.45 L1317.34 1540.03 M1328.61 1524.88 Q1321.61 1524.88 1317.5 1530.1 Q1313.36 1535.32 1313.36 1544.33 Q1313.36 1553.31 1317.47 1558.53 Q1321.61 1563.75 1328.61 1563.75 Q1335.61 1563.75 1339.72 1558.53 Q1343.79 1553.31 1343.79 1544.33 Q1343.79 1535.32 1339.72 1530.1 Q1335.61 1524.88 1328.61 1524.88 M1328.61 1519.66 Q1338.6 1519.66 1344.59 1526.38 Q1350.57 1533.06 1350.57 1544.33 Q1350.57 1555.57 1344.59 1562.25 Q1338.6 1568.97 1328.61 1568.97 Q1318.58 1568.97 1312.6 1562.28 Q1306.58 1555.6 1306.58 1544.33 Q1306.58 1533.06 1312.6 1526.35 Q1318.58 1519.66 1328.61 1519.66 Z" fill="#000000" fill-rule="nonzero" fill-opacity="1" /><path clip-path="url(#clip670)" d="M1359.45 1518.58 L1364.54 1518.58 Q1369.32 1526.09 1371.67 1533.29 Q1374.06 1540.48 1374.06 1547.58 Q1374.06 1554.71 1371.67 1561.93 Q1369.32 1569.16 1364.54 1576.64 L1359.45 1576.64 Q1363.68 1569.35 1365.75 1562.16 Q1367.85 1554.93 1367.85 1547.58 Q1367.85 1540.23 1365.75 1533.06 Q1363.68 1525.9 1359.45 1518.58 Z" fill="#000000" fill-rule="nonzero" fill-opacity="1" /><polyline clip-path="url(#clip670)" style="stroke:#000000; stroke-linecap:round; stroke-linejoin:round; stroke-width:4; stroke-opacity:1; fill:none" points="192.709,1423.18 192.709,923.472 "/>
<polyline clip-path="url(#clip670)" style="stroke:#000000; stroke-linecap:round; stroke-linejoin:round; stroke-width:4; stroke-opacity:1; fill:none" points="192.709,1382.29 211.607,1382.29 "/>
<polyline clip-path="url(#clip670)" style="stroke:#000000; stroke-linecap:round; stroke-linejoin:round; stroke-width:4; stroke-opacity:1; fill:none" points="192.709,1310.75 211.607,1310.75 "/>
<polyline clip-path="url(#clip670)" style="stroke:#000000; stroke-linecap:round; stroke-linejoin:round; stroke-width:4; stroke-opacity:1; fill:none" points="192.709,1239.21 211.607,1239.21 "/>
<polyline clip-path="url(#clip670)" style="stroke:#000000; stroke-linecap:round; stroke-linejoin:round; stroke-width:4; stroke-opacity:1; fill:none" points="192.709,1167.67 211.607,1167.67 "/>
<polyline clip-path="url(#clip670)" style="stroke:#000000; stroke-linecap:round; stroke-linejoin:round; stroke-width:4; stroke-opacity:1; fill:none" points="192.709,1096.13 211.607,1096.13 "/>
<polyline clip-path="url(#clip670)" style="stroke:#000000; stroke-linecap:round; stroke-linejoin:round; stroke-width:4; stroke-opacity:1; fill:none" points="192.709,1024.59 211.607,1024.59 "/>
<polyline clip-path="url(#clip670)" style="stroke:#000000; stroke-linecap:round; stroke-linejoin:round; stroke-width:4; stroke-opacity:1; fill:none" points="192.709,953.051 211.607,953.051 "/>
<path clip-path="url(#clip670)" d="M50.9921 1382.74 L80.6679 1382.74 L80.6679 1386.68 L50.9921 1386.68 L50.9921 1382.74 Z" fill="#000000" fill-rule="nonzero" fill-opacity="1" /><path clip-path="url(#clip670)" d="M100.76 1368.09 Q97.1493 1368.09 95.3206 1371.65 Q93.515 1375.2 93.515 1382.33 Q93.515 1389.43 95.3206 1393 Q97.1493 1396.54 100.76 1396.54 Q104.395 1396.54 106.2 1393 Q108.029 1389.43 108.029 1382.33 Q108.029 1375.2 106.2 1371.65 Q104.395 1368.09 100.76 1368.09 M100.76 1364.39 Q106.571 1364.39 109.626 1368.99 Q112.705 1373.58 112.705 1382.33 Q112.705 1391.05 109.626 1395.66 Q106.571 1400.24 100.76 1400.24 Q94.9502 1400.24 91.8715 1395.66 Q88.816 1391.05 88.816 1382.33 Q88.816 1373.58 91.8715 1368.99 Q94.9502 1364.39 100.76 1364.39 Z" fill="#000000" fill-rule="nonzero" fill-opacity="1" /><path clip-path="url(#clip670)" d="M120.922 1393.69 L125.807 1393.69 L125.807 1399.57 L120.922 1399.57 L120.922 1393.69 Z" fill="#000000" fill-rule="nonzero" fill-opacity="1" /><path clip-path="url(#clip670)" d="M136.802 1395.64 L144.441 1395.64 L144.441 1369.27 L136.131 1370.94 L136.131 1366.68 L144.394 1365.01 L149.07 1365.01 L149.07 1395.64 L156.709 1395.64 L156.709 1399.57 L136.802 1399.57 L136.802 1395.64 Z" fill="#000000" fill-rule="nonzero" fill-opacity="1" /><path clip-path="url(#clip670)" d="M99.5335 1296.55 Q95.9224 1296.55 94.0937 1300.11 Q92.2882 1303.66 92.2882 1310.79 Q92.2882 1317.89 94.0937 1321.46 Q95.9224 1325 99.5335 1325 Q103.168 1325 104.973 1321.46 Q106.802 1317.89 106.802 1310.79 Q106.802 1303.66 104.973 1300.11 Q103.168 1296.55 99.5335 1296.55 M99.5335 1292.85 Q105.344 1292.85 108.399 1297.45 Q111.478 1302.04 111.478 1310.79 Q111.478 1319.51 108.399 1324.12 Q105.344 1328.7 99.5335 1328.7 Q93.7234 1328.7 90.6447 1324.12 Q87.5892 1319.51 87.5892 1310.79 Q87.5892 1302.04 90.6447 1297.45 Q93.7234 1292.85 99.5335 1292.85 Z" fill="#000000" fill-rule="nonzero" fill-opacity="1" /><path clip-path="url(#clip670)" d="M119.695 1322.15 L124.58 1322.15 L124.58 1328.03 L119.695 1328.03 L119.695 1322.15 Z" fill="#000000" fill-rule="nonzero" fill-opacity="1" /><path clip-path="url(#clip670)" d="M144.765 1296.55 Q141.154 1296.55 139.325 1300.11 Q137.519 1303.66 137.519 1310.79 Q137.519 1317.89 139.325 1321.46 Q141.154 1325 144.765 1325 Q148.399 1325 150.205 1321.46 Q152.033 1317.89 152.033 1310.79 Q152.033 1303.66 150.205 1300.11 Q148.399 1296.55 144.765 1296.55 M144.765 1292.85 Q150.575 1292.85 153.63 1297.45 Q156.709 1302.04 156.709 1310.79 Q156.709 1319.51 153.63 1324.12 Q150.575 1328.7 144.765 1328.7 Q138.955 1328.7 135.876 1324.12 Q132.82 1319.51 132.82 1310.79 Q132.82 1302.04 135.876 1297.45 Q138.955 1292.85 144.765 1292.85 Z" fill="#000000" fill-rule="nonzero" fill-opacity="1" /><path clip-path="url(#clip670)" d="M100.76 1225.01 Q97.1493 1225.01 95.3206 1228.57 Q93.515 1232.12 93.515 1239.25 Q93.515 1246.35 95.3206 1249.92 Q97.1493 1253.46 100.76 1253.46 Q104.395 1253.46 106.2 1249.92 Q108.029 1246.35 108.029 1239.25 Q108.029 1232.12 106.2 1228.57 Q104.395 1225.01 100.76 1225.01 M100.76 1221.31 Q106.571 1221.31 109.626 1225.91 Q112.705 1230.5 112.705 1239.25 Q112.705 1247.97 109.626 1252.58 Q106.571 1257.16 100.76 1257.16 Q94.9502 1257.16 91.8715 1252.58 Q88.816 1247.97 88.816 1239.25 Q88.816 1230.5 91.8715 1225.91 Q94.9502 1221.31 100.76 1221.31 Z" fill="#000000" fill-rule="nonzero" fill-opacity="1" /><path clip-path="url(#clip670)" d="M120.922 1250.61 L125.807 1250.61 L125.807 1256.49 L120.922 1256.49 L120.922 1250.61 Z" fill="#000000" fill-rule="nonzero" fill-opacity="1" /><path clip-path="url(#clip670)" d="M136.802 1252.56 L144.441 1252.56 L144.441 1226.19 L136.131 1227.86 L136.131 1223.6 L144.394 1221.93 L149.07 1221.93 L149.07 1252.56 L156.709 1252.56 L156.709 1256.49 L136.802 1256.49 L136.802 1252.56 Z" fill="#000000" fill-rule="nonzero" fill-opacity="1" /><path clip-path="url(#clip670)" d="M101.131 1153.47 Q97.5197 1153.47 95.691 1157.03 Q93.8854 1160.58 93.8854 1167.71 Q93.8854 1174.81 95.691 1178.38 Q97.5197 1181.92 101.131 1181.92 Q104.765 1181.92 106.571 1178.38 Q108.399 1174.81 108.399 1167.71 Q108.399 1160.58 106.571 1157.03 Q104.765 1153.47 101.131 1153.47 M101.131 1149.77 Q106.941 1149.77 109.996 1154.37 Q113.075 1158.96 113.075 1167.71 Q113.075 1176.43 109.996 1181.04 Q106.941 1185.62 101.131 1185.62 Q95.3206 1185.62 92.2419 1181.04 Q89.1864 1176.43 89.1864 1167.71 Q89.1864 1158.96 92.2419 1154.37 Q95.3206 1149.77 101.131 1149.77 Z" fill="#000000" fill-rule="nonzero" fill-opacity="1" /><path clip-path="url(#clip670)" d="M121.293 1179.07 L126.177 1179.07 L126.177 1184.95 L121.293 1184.95 L121.293 1179.07 Z" fill="#000000" fill-rule="nonzero" fill-opacity="1" /><path clip-path="url(#clip670)" d="M140.39 1181.02 L156.709 1181.02 L156.709 1184.95 L134.765 1184.95 L134.765 1181.02 Q137.427 1178.26 142.01 1173.63 Q146.617 1168.98 147.797 1167.64 Q150.043 1165.11 150.922 1163.38 Q151.825 1161.62 151.825 1159.93 Q151.825 1157.17 149.88 1155.44 Q147.959 1153.7 144.857 1153.7 Q142.658 1153.7 140.205 1154.46 Q137.774 1155.23 134.996 1156.78 L134.996 1152.06 Q137.82 1150.92 140.274 1150.34 Q142.728 1149.77 144.765 1149.77 Q150.135 1149.77 153.33 1152.45 Q156.524 1155.14 156.524 1159.63 Q156.524 1161.76 155.714 1163.68 Q154.927 1165.58 152.82 1168.17 Q152.242 1168.84 149.14 1172.06 Q146.038 1175.25 140.39 1181.02 Z" fill="#000000" fill-rule="nonzero" fill-opacity="1" /><path clip-path="url(#clip670)" d="M100.182 1081.93 Q96.5706 1081.93 94.7419 1085.49 Q92.9363 1089.04 92.9363 1096.17 Q92.9363 1103.27 94.7419 1106.84 Q96.5706 1110.38 100.182 1110.38 Q103.816 1110.38 105.621 1106.84 Q107.45 1103.27 107.45 1096.17 Q107.45 1089.04 105.621 1085.49 Q103.816 1081.93 100.182 1081.93 M100.182 1078.23 Q105.992 1078.23 109.047 1082.83 Q112.126 1087.42 112.126 1096.17 Q112.126 1104.89 109.047 1109.5 Q105.992 1114.08 100.182 1114.08 Q94.3715 1114.08 91.2928 1109.5 Q88.2373 1104.89 88.2373 1096.17 Q88.2373 1087.42 91.2928 1082.83 Q94.3715 1078.23 100.182 1078.23 Z" fill="#000000" fill-rule="nonzero" fill-opacity="1" /><path clip-path="url(#clip670)" d="M120.344 1107.53 L125.228 1107.53 L125.228 1113.41 L120.344 1113.41 L120.344 1107.53 Z" fill="#000000" fill-rule="nonzero" fill-opacity="1" /><path clip-path="url(#clip670)" d="M149.58 1094.78 Q152.936 1095.49 154.811 1097.76 Q156.709 1100.03 156.709 1103.36 Q156.709 1108.48 153.191 1111.28 Q149.672 1114.08 143.191 1114.08 Q141.015 1114.08 138.7 1113.64 Q136.408 1113.23 133.955 1112.37 L133.955 1107.86 Q135.899 1108.99 138.214 1109.57 Q140.529 1110.15 143.052 1110.15 Q147.45 1110.15 149.742 1108.41 Q152.056 1106.67 152.056 1103.36 Q152.056 1100.31 149.904 1098.6 Q147.774 1096.86 143.955 1096.86 L139.927 1096.86 L139.927 1093.02 L144.14 1093.02 Q147.589 1093.02 149.418 1091.65 Q151.246 1090.26 151.246 1087.67 Q151.246 1085.01 149.348 1083.6 Q147.473 1082.16 143.955 1082.16 Q142.033 1082.16 139.834 1082.58 Q137.635 1082.99 134.996 1083.87 L134.996 1079.71 Q137.658 1078.97 139.973 1078.6 Q142.311 1078.23 144.371 1078.23 Q149.695 1078.23 152.797 1080.66 Q155.899 1083.06 155.899 1087.18 Q155.899 1090.05 154.255 1092.05 Q152.612 1094.01 149.58 1094.78 Z" fill="#000000" fill-rule="nonzero" fill-opacity="1" /><path clip-path="url(#clip670)" d="M99.0474 1010.39 Q95.4363 1010.39 93.6076 1013.95 Q91.8021 1017.5 91.8021 1024.63 Q91.8021 1031.73 93.6076 1035.3 Q95.4363 1038.84 99.0474 1038.84 Q102.682 1038.84 104.487 1035.3 Q106.316 1031.73 106.316 1024.63 Q106.316 1017.5 104.487 1013.95 Q102.682 1010.39 99.0474 1010.39 M99.0474 1006.69 Q104.858 1006.69 107.913 1011.29 Q110.992 1015.88 110.992 1024.63 Q110.992 1033.35 107.913 1037.96 Q104.858 1042.54 99.0474 1042.54 Q93.2373 1042.54 90.1586 1037.96 Q87.103 1033.35 87.103 1024.63 Q87.103 1015.88 90.1586 1011.29 Q93.2373 1006.69 99.0474 1006.69 Z" fill="#000000" fill-rule="nonzero" fill-opacity="1" /><path clip-path="url(#clip670)" d="M119.209 1035.99 L124.094 1035.99 L124.094 1041.87 L119.209 1041.87 L119.209 1035.99 Z" fill="#000000" fill-rule="nonzero" fill-opacity="1" /><path clip-path="url(#clip670)" d="M147.126 1011.38 L135.32 1029.83 L147.126 1029.83 L147.126 1011.38 M145.899 1007.31 L151.779 1007.31 L151.779 1029.83 L156.709 1029.83 L156.709 1033.72 L151.779 1033.72 L151.779 1041.87 L147.126 1041.87 L147.126 1033.72 L131.524 1033.72 L131.524 1029.21 L145.899 1007.31 Z" fill="#000000" fill-rule="nonzero" fill-opacity="1" /><path clip-path="url(#clip670)" d="M100.529 938.85 Q96.9178 938.85 95.0891 942.414 Q93.2836 945.956 93.2836 953.086 Q93.2836 960.192 95.0891 963.757 Q96.9178 967.299 100.529 967.299 Q104.163 967.299 105.969 963.757 Q107.797 960.192 107.797 953.086 Q107.797 945.956 105.969 942.414 Q104.163 938.85 100.529 938.85 M100.529 935.146 Q106.339 935.146 109.395 939.752 Q112.473 944.336 112.473 953.086 Q112.473 961.812 109.395 966.419 Q106.339 971.002 100.529 971.002 Q94.7187 971.002 91.6401 966.419 Q88.5845 961.812 88.5845 953.086 Q88.5845 944.336 91.6401 939.752 Q94.7187 935.146 100.529 935.146 Z" fill="#000000" fill-rule="nonzero" fill-opacity="1" /><path clip-path="url(#clip670)" d="M120.691 964.451 L125.575 964.451 L125.575 970.331 L120.691 970.331 L120.691 964.451 Z" fill="#000000" fill-rule="nonzero" fill-opacity="1" /><path clip-path="url(#clip670)" d="M135.806 935.771 L154.163 935.771 L154.163 939.706 L140.089 939.706 L140.089 948.178 Q141.107 947.831 142.126 947.669 Q143.144 947.484 144.163 947.484 Q149.95 947.484 153.33 950.655 Q156.709 953.826 156.709 959.243 Q156.709 964.822 153.237 967.924 Q149.765 971.002 143.445 971.002 Q141.269 971.002 139.001 970.632 Q136.756 970.261 134.348 969.521 L134.348 964.822 Q136.431 965.956 138.654 966.511 Q140.876 967.067 143.353 967.067 Q147.357 967.067 149.695 964.961 Q152.033 962.854 152.033 959.243 Q152.033 955.632 149.695 953.525 Q147.357 951.419 143.353 951.419 Q141.478 951.419 139.603 951.836 Q137.751 952.252 135.806 953.132 L135.806 935.771 Z" fill="#000000" fill-rule="nonzero" fill-opacity="1" /><path clip-path="url(#clip670)" d="M1195.14 809.544 L1195.14 815.742 L1188.01 815.742 Q1184 815.742 1182.42 817.362 Q1180.88 818.983 1180.88 823.195 L1180.88 827.206 L1193.15 827.206 L1193.15 832.999 L1180.88 832.999 L1180.88 872.576 L1173.38 872.576 L1173.38 832.999 L1166.25 832.999 L1166.25 827.206 L1173.38 827.206 L1173.38 824.046 Q1173.38 816.471 1176.91 813.028 Q1180.43 809.544 1188.09 809.544 L1195.14 809.544 Z" fill="#000000" fill-rule="nonzero" fill-opacity="1" /><path clip-path="url(#clip670)" d="M1199.88 868.12 L1208.14 868.12 L1208.14 843.369 L1199.11 845.03 L1199.11 840.331 L1208.42 838.751 L1213.97 838.751 L1213.97 868.12 L1222.28 868.12 L1222.28 872.576 L1199.88 872.576 L1199.88 868.12 Z" fill="#000000" fill-rule="nonzero" fill-opacity="1" /><path clip-path="url(#clip670)" d="M1237.67 867.958 L1254.85 867.958 L1254.85 872.576 L1230.62 872.576 L1230.62 868.12 Q1232 866.864 1234.55 864.596 Q1248.49 852.24 1248.49 848.433 Q1248.49 845.759 1246.38 844.139 Q1244.27 842.478 1240.83 842.478 Q1238.73 842.478 1236.25 843.207 Q1233.78 843.896 1230.87 845.313 L1230.87 840.331 Q1233.99 839.197 1236.66 838.629 Q1239.37 838.062 1241.68 838.062 Q1247.56 838.062 1251.08 840.736 Q1254.6 843.409 1254.6 847.784 Q1254.6 853.415 1241.2 864.92 Q1238.93 866.864 1237.67 867.958 Z" fill="#000000" fill-rule="nonzero" fill-opacity="1" /><path clip-path="url(#clip670)" d="M1281.14 812.096 L1288.02 812.096 L1266.96 880.273 L1260.07 880.273 L1281.14 812.096 Z" fill="#000000" fill-rule="nonzero" fill-opacity="1" /><path clip-path="url(#clip670)" d="M1318.81 809.544 L1318.81 815.742 L1311.68 815.742 Q1307.67 815.742 1306.09 817.362 Q1304.55 818.983 1304.55 823.195 L1304.55 827.206 L1316.83 827.206 L1316.83 832.999 L1304.55 832.999 L1304.55 872.576 L1297.06 872.576 L1297.06 832.999 L1289.93 832.999 L1289.93 827.206 L1297.06 827.206 L1297.06 824.046 Q1297.06 816.471 1300.58 813.028 Q1304.11 809.544 1311.76 809.544 L1318.81 809.544 Z" fill="#000000" fill-rule="nonzero" fill-opacity="1" /><path clip-path="url(#clip670)" d="M1323.55 868.12 L1331.81 868.12 L1331.81 843.369 L1322.78 845.03 L1322.78 840.331 L1332.1 838.751 L1337.65 838.751 L1337.65 868.12 L1345.95 868.12 L1345.95 872.576 L1323.55 872.576 L1323.55 868.12 Z" fill="#000000" fill-rule="nonzero" fill-opacity="1" /><path clip-path="url(#clip670)" d="M1356.81 868.12 L1365.07 868.12 L1365.07 843.369 L1356.04 845.03 L1356.04 840.331 L1365.36 838.751 L1370.91 838.751 L1370.91 868.12 L1379.21 868.12 L1379.21 872.576 L1356.81 872.576 L1356.81 868.12 Z" fill="#000000" fill-rule="nonzero" fill-opacity="1" /><polyline clip-path="url(#clip671)" style="stroke:#009af9; stroke-linecap:round; stroke-linejoin:round; stroke-width:4; stroke-opacity:1; fill:none" points="253.843,1310.58 253.855,1309.85 253.878,1308.58 253.91,1306.81 253.953,1304.63 254.006,1302.13 254.069,1299.4 254.141,1296.55 254.224,1293.69 254.317,1290.91 254.42,1288.32 254.533,1286.03 254.656,1284.12 254.789,1282.68 254.932,1281.79 255.086,1281.52 255.249,1281.93 255.422,1283.07 255.605,1284.96 255.798,1287.62 256.002,1291.04 256.215,1295.2 256.438,1300.04 256.672,1305.51 256.915,1311.53 257.168,1318.01 257.432,1324.84 257.705,1331.91 257.989,1339.1 258.282,1346.31 258.586,1353.41 258.899,1360.33 259.222,1366.95 259.556,1373.22 259.899,1379.06 260.253,1384.43 260.616,1389.29 260.989,1393.62 261.373,1397.4 261.766,1400.63 262.169,1403.3 262.583,1405.45 263.006,1407.07 263.439,1408.19 263.882,1408.84 264.335,1409.04 264.798,1408.82 265.271,1408.2 265.754,1407.23 266.247,1405.91 266.749,1404.28 267.262,1402.36 267.785,1400.18 268.317,1397.76 268.859,1395.12 269.412,1392.28 269.974,1389.25 270.546,1386.06 271.128,1382.72 271.72,1379.23 272.321,1375.61 272.933,1371.87 273.554,1368.02 274.185,1364.05 274.827,1359.99 275.477,1355.82 276.138,1351.55 276.809,1347.2 277.489,1342.75 278.179,1338.22 278.879,1333.6 279.589,1328.91 280.309,1324.14 281.038,1319.31 281.778,1314.42 282.526,1309.46 283.285,1304.46 284.054,1299.41 284.832,1294.32 285.62,1289.18 286.417,1284.01 287.225,1278.81 288.042,1273.58 288.869,1268.31 289.705,1263.01 290.552,1257.69 291.408,1252.33 292.273,1246.94 293.148,1241.53 294.033,1236.1 294.928,1230.64 295.832,1225.16 296.746,1219.66 297.669,1214.14 298.602,1208.61 299.545,1203.06 300.497,1197.51 301.459,1191.95 302.431,1186.38 303.412,1180.81 304.402,1175.23 305.402,1169.65 306.412,1164.07 307.431,1158.49 308.46,1152.92 309.498,1147.36 310.546,1141.81 311.603,1136.28 312.67,1130.77 313.746,1125.29 314.831,1119.84 315.926,1114.42 317.031,1109.04 318.145,1103.71 319.268,1098.41 320.401,1093.17 321.543,1087.97 322.694,1082.83 323.855,1077.73 325.025,1072.69 326.205,1067.7 327.394,1062.78 328.592,1057.92 329.799,1053.13 331.016,1048.4 332.242,1043.75 333.478,1039.17 334.722,1034.67 335.976,1030.24 337.239,1025.89 338.511,1021.63 339.793,1017.45 341.084,1013.37 342.384,1009.38 343.693,1005.49 345.011,1001.7 346.338,998.025 347.675,994.459 349.021,991.012 350.375,987.688 351.739,984.492 353.112,981.422 354.494,978.48 355.885,975.664 357.285,972.968 358.694,970.39 360.112,967.922 361.54,965.559 362.976,963.296 364.421,961.127 365.875,959.046 367.338,957.05 368.81,955.137 370.291,953.308 371.78,951.562 373.279,949.904 374.786,948.338 376.303,946.867 377.828,945.495 379.362,944.226 380.905,943.064 382.456,942.012 384.017,941.072 385.586,940.247 387.164,939.537 388.75,938.943 390.345,938.463 391.95,938.094 393.562,937.833 395.184,937.674 396.814,937.615 398.452,937.651 400.1,937.78 401.755,938 403.42,938.309 405.093,938.702 406.775,939.179 408.465,939.735 410.163,940.368 411.871,941.076 413.586,941.857 415.31,942.71 417.043,943.636 418.784,944.634 420.533,945.702 422.291,946.839 424.057,948.044 425.832,949.316 427.615,950.653 429.406,952.057 431.206,953.528 433.014,955.065 434.83,956.67 436.654,958.342 438.487,960.078 440.328,961.876 442.177,963.731 444.034,965.639 445.9,967.597 447.773,969.6 449.655,971.644 451.545,973.725 453.443,975.841 455.349,977.987 457.263,980.162 459.185,982.363 461.115,984.589 463.053,986.841 465,989.118 466.954,991.422 468.916,993.755 470.886,996.117 472.864,998.51 474.849,1000.93 476.843,1003.38 478.844,1005.86 480.854,1008.37 482.871,1010.9 484.896,1013.45 486.928,1016.03 488.969,1018.62 491.017,1021.24 493.073,1023.87 495.136,1026.53 497.208,1029.2 499.287,1031.88 501.373,1034.57 503.467,1037.27 505.569,1039.97 507.678,1042.67 509.795,1045.38 511.919,1048.08 514.051,1050.79 516.19,1053.48 518.337,1056.17 520.491,1058.86 522.653,1061.53 524.822,1064.19 526.998,1066.84 529.182,1069.48 531.373,1072.11 533.571,1074.73 535.777,1077.33 537.99,1079.93 540.21,1082.5 542.437,1085.05 544.672,1087.58 546.914,1090.08 549.163,1092.55 551.419,1095.01 553.682,1097.43 555.952,1099.83 558.229,1102.21 560.514,1104.57 562.805,1106.9 565.104,1109.22 567.409,1111.52 569.721,1113.8 572.041,1116.06 574.367,1118.32 576.7,1120.56 579.04,1122.79 581.386,1125.02 583.74,1127.22 586.1,1129.42 588.467,1131.59 590.841,1133.75 593.222,1135.88 595.609,1137.98 598.003,1140.06 600.404,1142.1 602.811,1144.12 605.225,1146.12 607.645,1148.08 610.072,1150.01 612.506,1151.92 614.946,1153.8 617.392,1155.65 619.845,1157.47 622.305,1159.27 624.771,1161.04 627.243,1162.78 629.722,1164.49 632.207,1166.18 634.698,1167.84 637.195,1169.48 639.699,1171.09 642.209,1172.68 644.725,1174.25 647.248,1175.8 649.777,1177.34 652.311,1178.86 654.852,1180.36 657.399,1181.85 659.952,1183.33 662.511,1184.8 665.076,1186.26 667.647,1187.7 670.225,1189.13 672.808,1190.55 675.396,1191.96 677.991,1193.35 680.592,1194.73 683.198,1196.1 685.811,1197.45 688.429,1198.79 691.053,1200.12 693.682,1201.44 696.318,1202.74 698.959,1204.02 701.605,1205.29 704.258,1206.54 706.915,1207.77 709.579,1208.99 712.248,1210.2 714.922,1211.39 717.603,1212.57 720.288,1213.73 722.979,1214.88 725.675,1216.02 728.377,1217.14 731.084,1218.24 733.797,1219.33 736.515,1220.41 739.238,1221.47 741.966,1222.53 744.7,1223.57 747.438,1224.61 750.182,1225.65 752.932,1226.68 755.686,1227.71 758.445,1228.74 761.21,1229.76 763.979,1230.78 766.753,1231.81 769.533,1232.83 772.317,1233.85 775.107,1234.86 777.901,1235.87 780.7,1236.86 783.504,1237.85 786.313,1238.83 789.127,1239.79 791.945,1240.75 794.768,1241.7 797.596,1242.64 800.428,1243.57 803.266,1244.5 806.107,1245.44 808.954,1246.37 811.805,1247.3 814.66,1248.24 817.52,1249.18 820.385,1250.13 823.254,1251.08 826.127,1252.02 829.005,1252.97 831.887,1253.9 834.774,1254.83 837.665,1255.75 840.56,1256.65 843.459,1257.54 846.363,1258.42 849.271,1259.28 852.183,1260.13 855.099,1260.98 858.019,1261.81 860.944,1262.64 863.872,1263.47 866.805,1264.3 869.741,1265.12 872.681,1265.94 875.626,1266.77 878.574,1267.59 881.526,1268.42 884.482,1269.26 887.442,1270.09 890.406,1270.93 893.373,1271.77 896.345,1272.61 899.319,1273.45 902.298,1274.29 905.28,1275.12 908.266,1275.95 911.256,1276.77 914.249,1277.59 917.245,1278.41 920.245,1279.22 923.249,1280.03 926.256,1280.83 929.266,1281.63 932.28,1282.43 935.297,1283.23 938.317,1284.02 941.341,1284.81 944.368,1285.59 947.399,1286.38 950.432,1287.16 953.469,1287.95 956.508,1288.73 959.551,1289.51 962.597,1290.29 965.646,1291.06 968.698,1291.83 971.754,1292.59 974.812,1293.35 977.873,1294.1 980.936,1294.84 984.003,1295.57 987.073,1296.3 990.145,1297.01 993.221,1297.73 996.299,1298.43 999.379,1299.13 1002.46,1299.83 1005.55,1300.52 1008.64,1301.21 1011.73,1301.89 1014.82,1302.57 1017.92,1303.24 1021.02,1303.91 1024.12,1304.57 1027.22,1305.23 1030.33,1305.89 1033.44,1306.55 1036.55,1307.22 1039.66,1307.88 1042.78,1308.54 1045.9,1309.21 1049.02,1309.87 1052.14,1310.54 1055.26,1311.21 1058.39,1311.87 1061.52,1312.53 1064.65,1313.18 1067.78,1313.82 1070.92,1314.45 1074.05,1315.06 1077.19,1315.66 1080.33,1316.24 1083.48,1316.81 1086.62,1317.37 1089.77,1317.91 1092.92,1318.44 1096.07,1318.97 1099.22,1319.48 1102.37,1319.99 1105.53,1320.5 1108.68,1321.01 1111.84,1321.52 1115,1322.03 1118.16,1322.54 1121.33,1323.05 1124.49,1323.56 1127.66,1324.08 1130.82,1324.59 1133.99,1325.11 1137.16,1325.62 1140.34,1326.13 1143.51,1326.64 1146.68,1327.15 1149.86,1327.66 1153.03,1328.16 1156.21,1328.65 1159.39,1329.13 1162.57,1329.61 1165.75,1330.07 1168.93,1330.52 1172.12,1330.95 1175.3,1331.37 1178.49,1331.78 1181.67,1332.17 1184.86,1332.55 1188.05,1332.92 1191.24,1333.28 1194.43,1333.63 1197.62,1333.98 1200.81,1334.32 1204,1334.67 1207.19,1335.01 1210.38,1335.35 1213.58,1335.7 1216.77,1336.06 1219.97,1336.42 1223.16,1336.78 1226.36,1337.15 1229.55,1337.52 1232.75,1337.88 1235.95,1338.25 1239.15,1338.62 1242.34,1338.98 1245.54,1339.35 1248.74,1339.71 1251.94,1340.07 1255.14,1340.43 1258.34,1340.79 1261.54,1341.14 1264.73,1341.49 1267.93,1341.83 1271.13,1342.16 1274.33,1342.48 1277.53,1342.79 1280.73,1343.09 1283.93,1343.38 1287.13,1343.65 1290.33,1343.91 1293.53,1344.17 1296.73,1344.41 1299.92,1344.64 1303.12,1344.87 1306.32,1345.09 1309.52,1345.31 1312.71,1345.53 1315.91,1345.75 1319.11,1345.97 1322.3,1346.2 1325.5,1346.44 1328.69,1346.69 1331.89,1346.94 1335.08,1347.21 1338.27,1347.47 1341.47,1347.74 1344.66,1348.02 1347.85,1348.29 1351.04,1348.56 1354.23,1348.82 1357.42,1349.08 1360.61,1349.34 1363.79,1349.59 1366.98,1349.83 1370.16,1350.07 1373.35,1350.3 1376.53,1350.51 1379.71,1350.72 1382.89,1350.92 1386.07,1351.11 1389.25,1351.3 1392.43,1351.48 1395.61,1351.67 1398.78,1351.85 1401.96,1352.03 1405.13,1352.22 1408.3,1352.41 1411.47,1352.6 1414.64,1352.79 1417.81,1352.98 1420.97,1353.18 1424.14,1353.37 1427.3,1353.56 1430.46,1353.76 1433.62,1353.95 1436.78,1354.13 1439.94,1354.32 1443.09,1354.5 1446.25,1354.68 1449.4,1354.85 1452.55,1355.02 1455.7,1355.19 1458.84,1355.35 1461.99,1355.51 1465.13,1355.67 1468.27,1355.82 1471.41,1355.97 1474.55,1356.12 1477.68,1356.27 1480.82,1356.42 1483.95,1356.57 1487.08,1356.71 1490.2,1356.85 1493.33,1356.99 1496.45,1357.12 1499.57,1357.25 1502.69,1357.38 1505.8,1357.51 1508.92,1357.64 1512.03,1357.77 1515.14,1357.9 1518.24,1358.04 1521.35,1358.18 1524.45,1358.33 1527.55,1358.48 1530.64,1358.62 1533.74,1358.77 1536.83,1358.92 1539.92,1359.07 1543,1359.22 1546.09,1359.36 1549.17,1359.5 1552.24,1359.63 1555.32,1359.75 1558.39,1359.86 1561.46,1359.96 1564.53,1360.05 1567.59,1360.13 1570.65,1360.2 1573.71,1360.27 1576.77,1360.33 1579.82,1360.38 1582.87,1360.44 1585.91,1360.5 1588.96,1360.57 1592,1360.63 1595.03,1360.71 1598.07,1360.78 1601.1,1360.86 1604.12,1360.94 1607.15,1361.03 1610.17,1361.11 1613.19,1361.2 1616.2,1361.29 1619.21,1361.38 1622.22,1361.47 1625.22,1361.56 1628.22,1361.65 1631.22,1361.74 1634.21,1361.82 1637.2,1361.9 1640.18,1361.98 1643.17,1362.05 1646.15,1362.12 1649.12,1362.18 1652.09,1362.24 1655.06,1362.29 1658.02,1362.34 1660.98,1362.38 1663.94,1362.42 1666.89,1362.46 1669.84,1362.49 1672.78,1362.52 1675.72,1362.54 1678.66,1362.57 1681.59,1362.58 1684.52,1362.6 1687.45,1362.62 1690.37,1362.63 1693.28,1362.64 1696.19,1362.65 1699.1,1362.66 1702.01,1362.67 1704.91,1362.68 1707.8,1362.69 1710.69,1362.7 1713.58,1362.71 1716.46,1362.73 1719.34,1362.74 1722.21,1362.75 1725.08,1362.76 1727.94,1362.77 1730.8,1362.79 1733.66,1362.8 1736.51,1362.81 1739.36,1362.82 1742.2,1362.83 1745.04,1362.84 1747.87,1362.84 1750.7,1362.84 1753.52,1362.84 1756.34,1362.83 1759.15,1362.82 1761.96,1362.8 1764.76,1362.78 1767.56,1362.76 1770.36,1362.73 1773.15,1362.7 1775.93,1362.67 1778.71,1362.63 1781.49,1362.59 1784.26,1362.55 1787.02,1362.5 1789.78,1362.45 1792.53,1362.39 1795.28,1362.34 1798.03,1362.28 1800.77,1362.23 1803.5,1362.17 1806.23,1362.12 1808.95,1362.08 1811.67,1362.03 1814.38,1361.98 1817.09,1361.94 1819.79,1361.9 1822.49,1361.85 1825.18,1361.8 1827.86,1361.75 1830.54,1361.69 1833.22,1361.63 1835.89,1361.57 1838.55,1361.5 1841.21,1361.43 1843.86,1361.35 1846.51,1361.27 1849.15,1361.18 1851.78,1361.1 1854.41,1361.01 1857.04,1360.92 1859.65,1360.83 1862.27,1360.74 1864.87,1360.65 1867.47,1360.57 1870.07,1360.49 1872.66,1360.4 1875.24,1360.32 1877.82,1360.24 1880.39,1360.16 1882.95,1360.07 1885.51,1359.99 1888.07,1359.89 1890.61,1359.79 1893.15,1359.69 1895.69,1359.58 1898.22,1359.47 1900.74,1359.36 1903.26,1359.24 1905.77,1359.12 1908.27,1359 1910.77,1358.88 1913.26,1358.75 1915.74,1358.63 1918.22,1358.5 1920.69,1358.37 1923.16,1358.24 1925.62,1358.11 1928.07,1357.97 1930.52,1357.84 1932.96,1357.7 1935.39,1357.57 1937.82,1357.44 1940.24,1357.3 1942.65,1357.17 1945.06,1357.04 1947.46,1356.91 1949.86,1356.79 1952.24,1356.66 1954.62,1356.53 1957,1356.4 1959.36,1356.26 1961.73,1356.13 1964.08,1355.99 1966.43,1355.84 1968.77,1355.7 1971.1,1355.55 1973.42,1355.39 1975.74,1355.23 1978.06,1355.08 1980.36,1354.91 1982.66,1354.75 1984.95,1354.59 1987.24,1354.42 1989.51,1354.26 1991.78,1354.09 1994.05,1353.92 1996.3,1353.75 1998.55,1353.58 2000.79,1353.4 2003.03,1353.23 2005.26,1353.05 2007.48,1352.88 2009.69,1352.7 2011.89,1352.52 2014.09,1352.34 2016.28,1352.16 2018.47,1351.97 2020.64,1351.79 2022.81,1351.61 2024.97,1351.42 2027.13,1351.24 2029.27,1351.06 2031.41,1350.87 2033.55,1350.69 2035.67,1350.52 2037.79,1350.34 2039.9,1350.16 2042,1349.98 2044.09,1349.8 2046.18,1349.62 2048.26,1349.43 2050.33,1349.24 2052.39,1349.05 2054.45,1348.85 2056.5,1348.65 2058.54,1348.45 2060.57,1348.25 2062.59,1348.04 2064.61,1347.83 2066.62,1347.62 2068.62,1347.41 2070.62,1347.2 2072.6,1346.99 2074.58,1346.78 2076.55,1346.57 2078.51,1346.36 2080.47,1346.15 2082.41,1345.95 2084.35,1345.74 2086.28,1345.53 2088.2,1345.32 2090.12,1345.11 2092.02,1344.9 2093.92,1344.69 2095.81,1344.48 2097.69,1344.27 2099.57,1344.06 2101.43,1343.84 2103.29,1343.63 2105.14,1343.42 2106.98,1343.2 2108.81,1342.98 2110.64,1342.76 2112.45,1342.54 2114.26,1342.32 2116.06,1342.1 2117.85,1341.87 2119.63,1341.65 2121.41,1341.43 2123.17,1341.2 2124.93,1340.98 2126.68,1340.76 2128.42,1340.54 2130.15,1340.31 2131.88,1340.1 2133.59,1339.88 2135.3,1339.66 2137,1339.44 2138.69,1339.22 2140.37,1339 2142.05,1338.77 2143.71,1338.55 2145.37,1338.32 2147.01,1338.1 2148.65,1337.87 2150.28,1337.64 2151.9,1337.41 2153.52,1337.18 2155.12,1336.95 2156.71,1336.72 2158.3,1336.49 2159.88,1336.26 2161.45,1336.03 2163.01,1335.8 2164.56,1335.58 2166.1,1335.35 2167.64,1335.13 2169.16,1334.91 2170.68,1334.68 2172.19,1334.46 2173.68,1334.24 2175.17,1334.02 2176.66,1333.8 2178.13,1333.58 2179.59,1333.36 2181.04,1333.13 2182.49,1332.91 2183.93,1332.69 2185.35,1332.47 2186.77,1332.25 2188.18,1332.03 2189.58,1331.81 2190.97,1331.58 2192.35,1331.36 2193.73,1331.14 2195.09,1330.92 2196.44,1330.7 2197.79,1330.48 2199.13,1330.26 2200.45,1330.04 2201.77,1329.83 2203.08,1329.61 2204.38,1329.39 2205.67,1329.18 2206.95,1328.96 2208.23,1328.75 2209.49,1328.54 2210.74,1328.33 2211.99,1328.12 2213.22,1327.91 2214.45,1327.7 2215.67,1327.49 2216.87,1327.29 2218.07,1327.08 2219.26,1326.88 2220.44,1326.68 2221.61,1326.48 2222.77,1326.28 2223.92,1326.08 2225.06,1325.89 2226.2,1325.69 2227.32,1325.5 2228.43,1325.3 2229.54,1325.11 2230.63,1324.92 2231.72,1324.73 2232.8,1324.54 2233.86,1324.35 2234.92,1324.16 2235.97,1323.97 2237.01,1323.78 2238.03,1323.59 2239.05,1323.4 2240.06,1323.21 2241.06,1323.02 2242.05,1322.84 2243.03,1322.65 2244.01,1322.47 2244.97,1322.28 2245.92,1322.1 2246.86,1321.92 2247.8,1321.74 2248.72,1321.57 2249.63,1321.4 2250.54,1321.22 2251.43,1321.05 2252.32,1320.89 2253.19,1320.72 2254.06,1320.56 2254.91,1320.4 2255.76,1320.24 2256.6,1320.08 2257.42,1319.92 2258.24,1319.77 2259.05,1319.61 2259.85,1319.46 2260.63,1319.3 2261.41,1319.15 2262.18,1319 2262.94,1318.85 2263.69,1318.7 2264.43,1318.54 2265.16,1318.39 2265.88,1318.24 2266.59,1318.1 2267.29,1317.95 2267.98,1317.8 2268.66,1317.66 2269.33,1317.52 2269.99,1317.37 2270.64,1317.24 2271.28,1317.1 2271.91,1316.96 2272.53,1316.83 2273.14,1316.7 2273.75,1316.57 2274.34,1316.44 2274.92,1316.31 2275.49,1316.18 2276.05,1316.06 2276.61,1315.93 2277.15,1315.81 2277.68,1315.68 2278.2,1315.56 2278.72,1315.44 2279.22,1315.32 2279.71,1315.2 2280.19,1315.08 2280.67,1314.95 2281.13,1314.83 2281.58,1314.71 2282.03,1314.59 2282.46,1314.47 2282.88,1314.35 2283.3,1314.23 2283.7,1314.11 2284.09,1313.98 2284.48,1313.86 2284.85,1313.74 2285.21,1313.62 2285.57,1313.5 2285.91,1313.38 2286.24,1313.26 2286.57,1313.14 2286.88,1313.02 2287.18,1312.91 2287.48,1312.79 2287.76,1312.68 2288.03,1312.57 2288.3,1312.46 2288.55,1312.36 2288.79,1312.25 2289.03,1312.15 2289.25,1312.05 2289.46,1311.95 2289.67,1311.86 2289.86,1311.77 2290.04,1311.68 2290.22,1311.59 2290.38,1311.51 2290.53,1311.42 2290.68,1311.35 2290.81,1311.27 2290.93,1311.2 2291.04,1311.14 2291.15,1311.07 2291.24,1311.02 2291.32,1310.96 2291.4,1310.91 2291.46,1310.87 2291.51,1310.84 2291.55,1310.8 2291.59,1310.78 2291.61,1310.76 2291.62,1310.75 "/>
</svg>
